<?xml version="1.0" standalone="no"?>
<!DOCTYPE svg PUBLIC "-//W3C//DTD SVG 1.1//EN" "http://www.w3.org/Graphics/SVG/1.1/DTD/svg11.dtd" >
<svg xmlns="http://www.w3.org/2000/svg">
<metadata>
Created by FontForge 20120731 at Fri Sep 23 18:12:41 2016
 By admin
</metadata>
<defs>
<font id="iconfont" horiz-adv-x="1024" >
  <font-face 
    font-family="iconfont"
    font-weight="500"
    font-stretch="normal"
    units-per-em="1024"
    panose-1="2 0 6 3 0 0 0 0 0 0"
    ascent="896"
    descent="-128"
    x-height="792"
    bbox="-0.5 -212 1481 896.5"
    underline-thickness="50"
    underline-position="-100"
    unicode-range="U+0078-E7F8"
  />
<missing-glyph horiz-adv-x="374" 
d="M34 0v682h272v-682h-272zM68 34h204v614h-204v-614z" />
    <glyph glyph-name=".notdef" horiz-adv-x="374" 
d="M34 0v682h272v-682h-272zM68 34h204v614h-204v-614z" />
    <glyph glyph-name=".null" horiz-adv-x="0" 
 />
    <glyph glyph-name="nonmarkingreturn" horiz-adv-x="341" 
 />
    <glyph glyph-name="x" unicode="x" horiz-adv-x="1001" 
d="M281 543q-27 -1 -53 -1h-83q-18 0 -36.5 -6t-32.5 -18.5t-23 -32t-9 -45.5v-76h912v41q0 16 -0.5 30t-0.5 18q0 13 -5 29t-17 29.5t-31.5 22.5t-49.5 9h-133v-97h-438v97zM955 310v-52q0 -23 0.5 -52t0.5 -58t-10.5 -47.5t-26 -30t-33 -16t-31.5 -4.5q-14 -1 -29.5 -0.5
t-29.5 0.5h-32l-45 128h-439l-44 -128h-29h-34q-20 0 -45 1q-25 0 -41 9.5t-25.5 23t-13.5 29.5t-4 30v167h911zM163 247q-12 0 -21 -8.5t-9 -21.5t9 -21.5t21 -8.5q13 0 22 8.5t9 21.5t-9 21.5t-22 8.5zM316 123q-8 -26 -14 -48q-5 -19 -10.5 -37t-7.5 -25t-3 -15t1 -14.5
t9.5 -10.5t21.5 -4h37h67h81h80h64h36q23 0 34 12t2 38q-5 13 -9.5 30.5t-9.5 34.5q-5 19 -11 39h-368zM336 498v228q0 11 2.5 23t10 21.5t20.5 15.5t34 6h188q31 0 51.5 -14.5t20.5 -52.5v-227h-327z" />
    <glyph glyph-name="uniE600" unicode="&#xe600;" 
d="M1024 203q0 -26 -8.5 -48.5t-24.5 -40.5t-37 -30t-46 -16l1 -1h-17h-4h-4h-676q-5 -1 -17 -1q-39 0 -74 15t-61 41t-41 61t-15 75t15 75t41 61t61 41.5t74 15.5h2q-2 8 -2 15v16q0 73 28 137.5t76 112t112 75.5t136.5 28t137 -28t113 -75.5t76 -112t27.5 -137.5
q0 -38 -8 -74t-23 -69q5 1 11 1.5t11 0.5q27 0 52.5 -11t43.5 -29.5t29 -44t11 -53.5zM666 325q20 0 26 4.5t-8 21.5q-14 19 -31.5 48.5t-36.5 60t-38.5 57.5t-37.5 39q-19 13 -27.5 14t-25.5 -12q-18 -15 -35.5 -38.5t-35.5 -50.5t-36 -52.5t-36 -44.5t-13 -33t25 -14h17
q9 0 19.5 -0.5t21.5 -0.5h17q14 -1 18.5 -10t4.5 -24q0 -18 -0.5 -31t-0.5 -25.5t-0.5 -25.5t-0.5 -31q0 -7 1.5 -15t5.5 -15.5t12 -12t22 -4.5h23q9 0 28 -1q24 0 27.5 12.5t3.5 38.5q0 24 1 43t1 51q0 24 4.5 37t19.5 13q11 0 32 0.5t33 0.5z" />
    <glyph glyph-name="uniE601" unicode="&#xe601;" 
d="M893 768q29 0 49 -20t20 -49v-52q0 -29 -20 -48.5t-49 -19.5h-760q-29 0 -48.5 19.5t-19.5 48.5v52q0 29 19.5 49t48.5 20h760zM893 447q29 0 49 -19.5t20 -48.5v-52q0 -29 -20 -49t-49 -20h-760q-29 0 -48.5 20t-19.5 49v52q0 29 19.5 48.5t48.5 19.5h760zM893 127
q29 0 49 -20t20 -49v-52q0 -29 -20 -48.5t-49 -19.5h-760q-29 0 -48.5 19.5t-19.5 48.5v52q0 29 19.5 49t48.5 20h760z" />
    <glyph glyph-name="uniE602" unicode="&#xe602;" horiz-adv-x="1000" 
d="M193 330q23 0 39 17t16 41t-16 41.5t-39 17.5t-39 -17.5t-16 -41.5t16 -41t39 -17zM856 294l-51 55l-50 -54l-49 53l-50 -53l-57 52l-56 -55h-82q-27 -51 -74.5 -81t-103.5 -30q-87 0 -146.5 57.5t-59.5 146.5q0 91 61 162t145 71q56 0 102.5 -30t74.5 -79h414l69 -74
q8 -9 8 -24.5t-7 -23.5l-86 -93h-2z" />
    <glyph glyph-name="uniE603" unicode="&#xe603;" 
d="M598 123h20v-4h-20v4zM686 144h5v-16h-5v16zM702 144h5v-16h-5v16zM598 116h20v-3h-20v3zM160 476h702v-482h-702v482zM928 -78h-834v622h834v-622zM120 -53h782v571h-782v-571zM795 561l-244 196l19 23l275 -219h-50zM227 561l244 196l-19 23l-275 -219h50zM555 812.5
q0 -18.5 -13 -31t-31 -12.5t-31 12.5t-13 31t13 31t31 12.5t31 -12.5t13 -31z" />
    <glyph glyph-name="uniE604" unicode="&#xe604;" 
d="M642 76q-16 2 -28 6t-18.5 9.5t-11 11t-5.5 11t-1 10t0.5 7.5t-0.5 4l1 35q5 2 12 7t22.5 21t21.5 32q3 3 10 7t9 5.5t5.5 4.5t5 6t2.5 7q-1 1 -0.5 6t-0.5 14t-3 17t-6.5 14t-10.5 6h-2t-3.5 3t-0.5 9q5 21 0 71q0 2 -0.5 11.5t-1.5 15.5t-3.5 14.5t-8.5 14t-14 7.5
q-12 2 -21.5 0.5t-12.5 -1.5q-4 1 -17.5 20t-24.5 19l-40 -17q-11 0 -17.5 -3.5t-9.5 -3.5q-23 -4 -29 -5q-20 -4 -31 -23.5t-12 -36.5q-6 -54 -5 -80q2 -6 -2.5 -9.5t-9.5 -3.5l-5 -1q-8 1 -11 -13t-2 -29l1 -14q0 -1 0.5 -4.5t1 -4.5t1 -3.5t1.5 -3.5t2.5 -3.5t3.5 -3.5
t4.5 -3t6 -3.5t8.5 -3.5q6 -17 21 -31t27 -19l13 -6q1 -24 2 -41q-2 0 -0.5 -4t-1.5 -11.5t-8 -15t-21 -15t-40 -10.5q-88 -13 -103 -56q-13 -32 -13 -128l496 1q1 111 -15 127q-2 2 -11.5 13t-16.5 16.5t-28 13.5t-51 13zM1013 -106q-1 8 -3 22t-14 41.5t-29 37.5l-7 7
q-7 8 -11 11t-14 9t-24.5 9.5t-32.5 6.5q-14 2 -24 5.5t-15.5 7.5t-9 8t-4.5 8.5t-1 7.5v5l1 3q0 3 0.5 9.5t1.5 12.5v5q27 18 37 46q7 5 8 8t-0.5 7t-0.5 8q1 1 1 25t-8 19h-4q-2 0 -4.5 2t-1.5 7q5 26 3 54q-1 2 -1 9t-1 12t-2.5 11.5t-6 10.5t-11.5 6h-8l1 -1h-3
q-3 1 -13.5 8.5t-18.5 7.5l-31 -5q-8 0 -13 -2.5t-7 -2.5q-18 -3 -23 -4q-8 -1 -12.5 -7t-5.5 -10.5t-1 -12.5v-10q0 -3 2 -58q1 -4 -0.5 -7.5t-3.5 -5.5l-1 -1q-8 1 -8 -43q0 -3 0.5 -7.5t1 -6.5t4.5 -5t12 -6q4 -13 10.5 -24t10.5 -15l4 -4q1 -20 1 -33q7 -4 12 -8.5
t8.5 -7.5t8 -8.5t6.5 -8.5t6.5 -10t6.5 -9q17 -20 17 -134h92h89h34zM299 80l1 33q21 14 31 43q10 4 13 6.5t3 9.5v9l1 30q-2 13 -8 13q-2 0 -3.5 1t-4.5 5t-2 8q2 48 1 58v10q0 8 -1 12.5t-5.5 10.5t-12.5 7q-5 1 -22 4q-3 0 -6 2.5t-12 2.5l-30 5q-9 0 -19.5 -7.5
t-12.5 -8.5q-4 0 -3 1h-8q-6 -2 -10.5 -6t-6.5 -10.5t-3 -11.5t-1 -12v-9q-4 -36 0 -54q1 -5 0 -7t-3 -2h-2q-7 0 -11 -9.5t-4 -19.5v-9q1 -3 0.5 -9.5t2 -10.5t9.5 -9q5 -12 14 -23.5t16 -17.5l7 -5l-1 -27v-1v-4q0 -2 -0.5 -5t-2 -6t-3.5 -6.5t-6 -7t-9 -6t-12.5 -5
t-16.5 -4.5q-18 -3 -32 -6.5t-24 -9.5t-14.5 -9t-11.5 -11l-7 -7q-21 -12 -32.5 -37.5t-13 -44.5t-0.5 -20h215q0 85 18 135q2 4 6.5 11.5t7.5 11t8 9.5t10.5 10.5t12.5 9.5z" />
    <glyph glyph-name="uniE605" unicode="&#xe605;" 
d="M122 504q-49 0 -84 -34.5t-35 -83.5t35 -84t84 -35t83.5 35t34.5 84t-34.5 83.5t-83.5 34.5zM500 504q-49 0 -84 -34.5t-35 -83.5t35 -84t84 -35t84 35t35 84t-35 83.5t-84 34.5zM902 504q-49 0 -84 -34.5t-35 -83.5t35 -84t84 -35t83.5 35t34.5 84t-34.5 83.5
t-83.5 34.5z" />
    <glyph glyph-name="uniE606" unicode="&#xe606;" 
d="M512 -128q104 0 199 40.5t163.5 109t109.5 163.5t41 199t-41 199t-109.5 163.5t-163.5 109t-199 40.5t-199 -40.5t-163.5 -109t-109 -163.5t-40.5 -199t40.5 -199t109 -163.5t163.5 -109t199 -40.5zM516.5 744q99.5 0 184 -49t133.5 -133.5t49 -184.5t-49 -184.5
t-133.5 -133.5t-184 -49t-184 49t-134 133.5t-49.5 184.5t49.5 184.5t134 133.5t184 49zM470 298h256q17 0 29.5 12.5t12.5 30.5t-12.5 30.5t-29.5 12.5h-214v213q0 18 -12.5 30.5t-30 12.5t-30 -12.5t-12.5 -30.5v-256q0 -18 12.5 -30.5t30.5 -12.5z" />
    <glyph glyph-name="uniE607" unicode="&#xe607;" 
d="M513 436q-108 0 -184 -74t-76 -179t76 -179t184 -74t184.5 74t76.5 179t-76.5 179t-184.5 74zM513 75q-46 0 -78.5 31.5t-32.5 76.5t32.5 76.5t78.5 31.5t79 -31.5t33 -76.5t-33 -76.5t-79 -31.5zM956 666l-117 153q-8 11 -23 12h1h-606q-14 0 -23 -12l-117 -153
q-12 -15 -2 -32l159 -268q7 -10 18.5 -13t22 2.5t14 17t-2.5 22.5l-150 252l79 103l168 -284q6 -10 18 -13t22.5 3t13.5 17.5t-3 21.5l-83 141h337l-84 -141q-6 -10 -2.5 -21.5t14 -17.5t22 -3t18.5 13l168 284l79 -103l-150 -252q-6 -11 -3 -22.5t13.5 -17t22.5 -2.5t18 13
l160 268q9 17 -2 32z" />
    <glyph glyph-name="uniE608" unicode="&#xe608;" 
d="M289 230l31 -198h54l31 198l-58 49zM870 733h-718q-38 0 -65 -27.5t-27 -65.5v-457q59 80 143 119l36 -79l57 64q-51 16 -83 59q-35 47 -35 105q0 71 49.5 121.5t119.5 50.5t119.5 -50.5t49.5 -121.5q0 -59 -35 -105q-32 -42 -83 -59l57 -64l36 79q79 -35 134.5 -103.5
t74.5 -155.5q0 -2 1 -11h169q38 0 65 27.5t27 66.5v514q0 38 -27 65.5t-65 27.5zM840 401h-195q-6 0 -10 4.5t-4 11t4 11t10 4.5h195q6 0 10 -4.5t4 -11t-4 -11t-10 -4.5zM840 486h-195q-6 0 -10 5t-4 11t4 11t10 5h195q6 0 10 -5t4 -11t-4 -11t-10 -5z" />
    <glyph glyph-name="uniE609" unicode="&#xe609;" 
d="M37 567q-1 5 -0.5 13.5t4.5 32.5t12.5 46t29 49.5t49 46.5t76 32.5t107.5 13.5h448q5 0 13 -1t31 -7.5t44.5 -15.5t47 -27t44 -41.5t31.5 -60.5t13 -81v-4v-4v-3v-4v-4v-4v-4v-3v-4v-4v-4v-4v-4v-4v-4v-3v-4v-4v-4v-4v-4v-4v-4v-4v-4v-5v-4v-4v-4v-4v-5v-4v-4v-5v-5v-4
v-5v-5v-6v-5v-6q0 -5 -0.5 -12.5t-5 -29.5t-12 -42.5t-24.5 -45t-40 -42.5t-60.5 -30t-83.5 -12h-10h-10h-13h-18h-1v-231l-271 230h-187q-4 1 -11.5 2t-30 7.5t-42.5 16.5t-45 30t-43 45.5t-30 66t-12 89.5v141v-11zM762.5 581q-33.5 0 -57.5 -23.5t-24 -57t24 -57.5
t57.5 -24t57 24t23.5 57.5t-23.5 57t-57 23.5zM523.5 581q-33.5 0 -57 -23.5t-23.5 -57t23.5 -57.5t57 -24t57.5 24t24 57.5t-24 57t-57.5 23.5zM285.5 581q-33.5 0 -57 -23.5t-23.5 -57t23.5 -57.5t57 -24t57 24t23.5 57.5t-23.5 57t-57 23.5z" />
    <glyph glyph-name="uniE60A" unicode="&#xe60a;" 
d="M284 662q22 0 36.5 -14.5t14.5 -35.5v-39q0 -22 -14.5 -36.5t-36.5 -14.5h-40q-21 0 -36 14.5t-15 36.5v39q0 21 15 35.5t36 14.5h40zM808 662q20 0 35 -14.5t15 -35.5v-39q0 -22 -15 -36.5t-35 -14.5h-326q-21 0 -36 14.5t-15 36.5v39q0 21 15 35.5t36 14.5h326z
M284 425q22 0 36.5 -15t14.5 -36v-39q0 -21 -14.5 -36t-36.5 -15h-40q-21 0 -36 15t-15 36v39q0 21 15 36t36 15h40zM808 425q20 0 35 -15t15 -36v-39q0 -21 -14.5 -36t-35.5 -15h-326q-21 0 -36 15t-15 36v39q0 21 15 36t36 15h326zM284 187q22 0 36.5 -15t14.5 -36v-39
q0 -21 -14.5 -36t-36.5 -15h-40q-21 0 -36 15t-15 36v39q0 21 15 36t36 15h40zM808 187q20 0 35 -15t15 -36v-39q0 -21 -14.5 -36t-35.5 -15h-326q-21 0 -36 15t-15 36v39q0 21 15 36t36 15h326zM808 187z" />
    <glyph glyph-name="uniE60B" unicode="&#xe60b;" 
d="M511 742q73 0 139 -28q64 -28 113.5 -77t76.5 -113q28 -67 28 -139.5t-28 -138.5q-27 -64 -76.5 -113.5t-113.5 -76.5q-66 -28 -139 -28t-139 28q-64 27 -113.5 76.5t-76.5 113.5q-28 66 -28 138.5t28 139.5q27 64 76.5 113t113.5 77q66 28 139 28zM511 832
q-91 0 -173.5 -35.5t-142.5 -95.5t-95.5 -142.5t-35.5 -173.5t35.5 -174t95.5 -143t142.5 -95t173.5 -35t174 35t142.5 95t95 143t35.5 174t-35.5 173.5t-95 142.5t-142.5 95.5t-174 35.5zM511 385zM227 384.5q0 117.5 83 201t201 83.5t201 -83.5t83 -201t-83 -200.5
t-201 -83t-201 83t-83 200.5z" />
    <glyph glyph-name="uniE60C" unicode="&#xe60c;" 
d="M512 891v-507h507v26q0 16 -8 63.5t-23.5 92t-52.5 100.5t-89 99t-138.5 78.5t-195.5 47.5zM464 858v-521h507q0 -6 -1 -16.5t-6.5 -41.5t-14.5 -61.5t-27.5 -72t-43 -77t-62.5 -72t-84 -62t-111.5 -41.5t-140.5 -16h-16q-11 0 -43.5 4t-64 11t-74.5 23t-79.5 37.5
t-74.5 57t-64 80t-43 108t-17 138.5v1q3 2 0 18t2 44.5t9 63.5t20.5 76t36.5 81t57 79t81.5 71t110 55.5t143.5 32.5z" />
    <glyph glyph-name="uniE60D" unicode="&#xe60d;" 
d="M512.5 765q-103.5 0 -191.5 -51t-139 -139t-51 -191.5t51 -191.5t139 -139t191.5 -51t191.5 51t139 139t51 191.5t-51 191.5t-139 139t-191.5 51zM703 342h-202q-7 0 -13 2q-19 8 -19 29v203q0 13 9.5 22t22.5 9t22 -9t9 -22v-172h171q13 0 22.5 -9t9.5 -22t-9.5 -22
t-22.5 -9z" />
    <glyph glyph-name="uniE60E" unicode="&#xe60e;" 
d="M322 541h379v-79h-379v79zM322 414h268v-60h-268v60zM512 890l489 -397l-141 -79h-30v206l-633 1v-207h-33l-143 78zM945 462h73v31h-17zM77 462l-56 30l-16 1v-31h72zM974 462l-288 -227l239 -247l-297 206l-116 -78l-119 79l-287 -207l233 247l-285 227h-49v-469v-12
q0 -8 5 -28t15 -35.5t33.5 -28t56.5 -12.5h794q4 0 11.5 0.5t26.5 5.5t33.5 15t26 33.5t11.5 56.5v474h-44z" />
    <glyph glyph-name="uniE60F" unicode="&#xe60f;" 
d="M746 738q107 1 172.5 -48t92.5 -136q15 -44 9 -110.5t-31 -96.5q-93 -64 -279.5 -192t-279.5 -192q-11 12 -32 35.5t-32 35.5q471 316 568 381q-6 16 -22 21t-32 -5q-23 -14 -65.5 -39t-53.5 -32q-2 -1 -16.5 -11t-23.5 -12q-1 1 -9 7l-12 9l3 4q37 25 112 74t112 74v3
q-6 8 -13 12.5t-12.5 5.5t-14.5 -2t-12.5 -5t-14.5 -9l-13 -9q-12 -7 -58.5 -36t-71.5 -45q-5 -3 -16.5 -12t-21.5 -15t-19 -8q-1 2 -6.5 7.5t-8.5 10t-2 7.5q122 78 264 168q0 22 -13.5 29.5t-30 3.5t-29.5 -13q-27 -17 -81.5 -52t-81.5 -52q-6 -4 -21.5 -16t-29 -20.5
t-23.5 -10.5q-6 3 -27 14v1q28 20 86 59t86 59q4 2 21 12t29.5 18t16.5 15q11 36 -26.5 36t-53.5 -15q-63 -41 -190 -124q-7 -5 -22.5 -16.5t-25.5 -18.5t-25.5 -14t-30.5 -10q-28 -5 -64 23l-33 39q-40 48 -91 69q-27 11 -58.5 4.5t-45.5 -24.5q-17 -21 -23 -40
q44 -8 80 -38t47 -70q3 -11 3 -32t1 -34q9 -49 27 -79q33 -54 90 -100q3 -2 11.5 -8.5t13.5 -10.5t11.5 -10t12 -11.5t8.5 -11.5v-1q-6 -3 -29 -17t-43.5 -25.5t-25.5 -9.5q-3 4 -9.5 11t-9.5 11l-62 73q-23 28 -82 96t-88 107q-3 4 -11 14t-12.5 15.5t-12 16.5t-12 19
t-10 19t-8.5 21.5t-5 23t-2 25.5t2 26q10 51 44.5 93t86.5 60t115 -5q35 -14 73 -40t56 -42.5t58 -54.5h1q40 26 118 79t117 79q27 11 72 15z" />
    <glyph glyph-name="uniE610" unicode="&#xe610;" 
d="M73 477h880v-186h-880v186zM420 824h186v-880h-186v880z" />
    <glyph glyph-name="uniE611" unicode="&#xe611;" 
d="M747 500q-24 89 -93 154.5t-158 65.5q-111 0 -182.5 -71.5t-78.5 -192.5q-71 0 -121 -46.5t-50 -121.5q0 -51 23.5 -106.5t63.5 -94.5t81 -39h560q51 1 90.5 44.5t58.5 103.5t19 120q0 46 -11.5 83.5t-36.5 67t-66 37.5t-99 -4zM680 334q-1 -3 -4 -3h-103v-159
q0 -5 -3 -8.5t-8 -3.5h-100q-5 0 -8 3.5t-3 8.5v159h-103q-3 0 -3.5 2.5t0.5 4.5l159 155q4 3 8 3t8 -3l159 -155q1 -2 1 -4zM680 334z" />
    <glyph glyph-name="uniE612" unicode="&#xe612;" 
d="M747 500q-24 89 -93 154.5t-158 65.5q-111 0 -182.5 -71.5t-78.5 -192.5q-71 0 -121 -46.5t-50 -121.5q0 -51 23.5 -106.5t63.5 -94.5t81 -39h560q50 1 90 44.5t59 103.5t19 120q0 46 -11.5 83.5t-36.5 67t-66 37.5t-99 -4zM679 318l-159 -155q-4 -3 -8 -3t-8 3l-159 155
q-1 2 -0.5 4.5t3.5 2.5h103v159q0 5 3 8.5t8 3.5h100q5 0 8 -3.5t3 -8.5v-159h103q3 0 3.5 -2.5t-0.5 -4.5zM679 318z" />
    <glyph glyph-name="uniE613" unicode="&#xe613;" 
d="M585 467q-1 6 -4.5 16.5t-11 21.5t-19 18.5t-29.5 7.5q-32 0 -49.5 -25t-19.5 -76h98q13 0 21 4t11.5 9.5t3.5 11.5t-1 12zM585 467q-1 6 -4.5 16.5t-11 21.5t-19 18.5t-29.5 7.5q-32 0 -49.5 -25t-19.5 -76h98q13 0 21 4t11.5 9.5t3.5 11.5t-1 12zM516 822
q-90 0 -172 -35t-141 -94t-94 -141t-35 -172t35 -171.5t94 -141t141 -94.5t172 -35t171.5 35t141 94.5t94.5 141t35 171.5t-35 172t-94.5 141t-141 94t-171.5 35zM774 179q0 -36 -25.5 -61.5t-61.5 -25.5h-350q-36 0 -61.5 25.5t-25.5 61.5v410q0 36 25.5 61.5t61.5 25.5
h350q36 0 61.5 -25.5t25.5 -61.5v-410zM302 209h420v410h-420v-410zM368.5 476q11.5 30 33 51.5t51 33t66.5 11.5q35 0 62.5 -12t47 -32t30 -45t10.5 -51q0 -51 -58 -51h-154q8 -37 28.5 -58.5t50.5 -21.5q17 0 28.5 3.5t20.5 8.5t16 9q8 3 16 3q10 0 17.5 -2.5t17.5 -11.5
q-10 -11 -23 -22t-29 -19t-36 -13t-44 -5q-36 0 -66 11.5t-52 32t-33.5 49.5t-11.5 65t11.5 66zM571 434q8 4 11.5 9.5t3.5 11.5t-1 12t-4.5 16.5t-11 21.5t-19 18.5t-29.5 7.5q-32 0 -49.5 -25t-19.5 -76h98q13 0 21 4zM513 186q-15 0 -25.5 -10.5t-10.5 -25t10.5 -25
t25.5 -10.5t25.5 10.5t10.5 25t-10.5 25t-25.5 10.5z" />
    <glyph glyph-name="uniE614" unicode="&#xe614;" 
d="M760 -23v199h78v133h-310v-133h78v-199h-199v199h77v133h-298v-133h77v-199h-199v199h77v133v44h45h298v133h-122v298h299v-298h-133v-133h354v-11v-33v-133h77v-199h-199z" />
    <glyph glyph-name="uniE615" unicode="&#xe615;" 
d="M545 224v57h-69v-57q0 -4 -0.5 -10t-5.5 -26.5t-13.5 -40.5t-27 -48.5t-43.5 -55t-65.5 -55.5t-90.5 -53h561q-61 21 -108.5 59.5t-72 75.5t-40.5 75t-20.5 57t-4.5 22zM493 108h35q7 0 12.5 -4.5t5.5 -10.5t-5.5 -10t-12.5 -4h-35q-7 0 -12 4t-5 10t5 10.5t12 4.5z
M459 50h104q7 0 12.5 -4t5.5 -10t-5.5 -10.5t-12.5 -4.5h-104q-8 0 -13 4.5t-5 10.5t5 10t13 4zM598 -36h-174q-7 0 -12.5 4t-5.5 10t5.5 10.5t12.5 4.5h174q7 0 12 -4.5t5 -10.5t-5 -10t-12 -4zM511 482q-43 0 -74 -25.5t-31 -61t31 -61t74 -25.5t73.5 25.5t30.5 61
t-30.5 61t-73.5 25.5zM513 770q155 0 270 -86l45 47q-132 97 -315 97t-315 -97l45 -47q114 86 270 86zM513 596q-81 0 -135 -51l50 -38q34 33 85 33q56 0 90 -40l43 46q-54 50 -133 50zM742 636q-95 76 -229 76q-132 0 -226 -74l45 -46q75 62 181 62q108 0 184 -64z" />
    <glyph glyph-name="uniE616" unicode="&#xe616;" 
d="M194 276v-195q0 -15 11 -25.5t26 -10.5h99q15 0 26 10.5t11 25.5v195q-36 -36 -86.5 -36t-86.5 36zM510 260q-56 0 -91 41v-218q0 -15 10.5 -26t25.5 -11h117q15 0 25.5 11t10.5 26v226q-15 -22 -41 -35.5t-57 -13.5zM746 481q-27 -58 -86 -90v-308q0 -15 11 -26t26 -11
h99q15 0 26 11t11 26v348q-18 1 -33.5 6t-25 12.5t-16 14.5t-9.5 12zM590 725l86 -85l-173 -197l-116 114l-198 -224l70 -67l148 166l108 -104l226 247l92 -92v242h-243z" />
    <glyph glyph-name="uniE617" unicode="&#xe617;" 
d="M283 -51v202h-200zM797 239v151h-100v-151h-151v-101h151v-138h100v138h138v101h-138zM647 88h-76q-26 0 -44 18.5t-18 44.5v75q0 27 18 45t44 18h76v76q0 26 18 44.5t44 18.5q6 0 13 -1v392q0 5 -4 8.5t-9 3.5h-589q-5 0 -8.5 -3.5t-3.5 -8.5v-630q0 3 1.5 3t5 -1.5
t5.5 -1.5h188q5 0 9 -4t4 -9v-189q0 -3 1.5 -6.5t1.5 -4.5t-3 -1h331q-5 12 -5 25v88zM168 746q0 6 4 10t10 4h469q6 0 10 -4t4 -10v-14q0 -6 -4 -10t-10 -4h-469q-6 0 -10 4t-4 10v14zM168 647q0 5 4 9.5t10 4.5h469q6 0 10 -4.5t4 -9.5v-15q0 -6 -4 -10t-10 -4h-469
q-6 0 -10 4t-4 10v15zM168 547q0 6 4 10t10 4h469q6 0 10 -4t4 -10v-14q0 -6 -4 -10t-10 -4h-469q-6 0 -10 4t-4 10v14zM452 434q0 -15 -8 -15h-268q-8 0 -8 15v14q0 14 8 14h268q8 0 8 -14v-14z" />
    <glyph glyph-name="uniE618" unicode="&#xe618;" 
d="M717 685v-608h272v608h-272zM824 596h58v-190h-58v190zM853 270q-13 0 -22.5 9.5t-9.5 23t9.5 23t22.5 9.5t22.5 -9.5t9.5 -23t-9.5 -23t-22.5 -9.5zM38 183h275v-55h-122v-51h325v51h-122v55h275v457h-631v-457zM109 569h489v-315h-489v315z" />
    <glyph glyph-name="uniE619" unicode="&#xe619;" 
d="M463 -70h-331q-30 0 -52 22t-22 52v180h259q8 -77 46.5 -143t99.5 -111zM317 257q7 77 45.5 143t99.5 111h-404v-254h259zM966 433v78h-78q45 -33 78 -78zM966 764q0 30 -22 52t-53 22h-759q-30 0 -52 -22t-22 -52v-180h908v180zM966 221q0 -29 -6 -57q-2 -9 -11 -9h-47
q-7 -25 -20 -47l34 -34q6 -6 1 -14q-32 -49 -81 -81q-8 -5 -14 1l-33 34q-23 -12 -48 -20v-47q0 -9 -9 -11q-28 -6 -57 -6t-57 6q-9 2 -9 11v47q-25 8 -48 20l-33 -34q-7 -6 -14 -1q-24 16 -44.5 36.5t-36.5 44.5q-5 8 1 14l34 33q-13 23 -20 48h-47q-10 0 -11 9
q-6 28 -6 57t6 58q1 8 11 8h47q7 25 20 48l-34 33q-6 7 -1 14q16 25 36 45q21 20 45 36q7 5 14 -1l33 -34q23 13 48 20v47q0 10 9 11q57 12 114 0q9 -1 9 -11v-47q25 -7 48 -20l33 34q7 6 14 1q24 -16 44.5 -36.5t36.5 -44.5q5 -7 -1 -14l-34 -33q13 -23 20 -48h47
q9 0 11 -9q6 -27 6 -57zM758 221.5q0 34.5 -24.5 58.5t-59 24t-58.5 -24t-24 -58.5t24 -59t58.5 -24.5t59 24.5t24.5 59z" />
    <glyph glyph-name="uniE61A" unicode="&#xe61a;" 
d="M992 416h-128v-128h-192v128h-128v192h128v128h192v-128h128v-192zM32 480h448v-192h-448v192zM32 736h448v-192h-448v192zM992 32h-960v192h960v-192z" />
    <glyph glyph-name="uniE61B" unicode="&#xe61b;" 
d="M788 457h-55v157q0 72 -51.5 123.5t-124.5 51.5h-107q-73 0 -124.5 -51.5t-51.5 -123.5v-157h-55q-29 0 -49.5 -20.5t-20.5 -48.5v-361q0 -29 20.5 -49.5t49.5 -20.5h569q29 0 49 20.5t20 49.5v361q0 28 -20 48.5t-49 20.5zM354 614q0 39 28 67t68 28h107q40 0 68 -28
t28 -67v-157h-299v157z" />
    <glyph glyph-name="uniE61C" unicode="&#xe61c;" 
d="M888 126q-3 53 -28 100t-66 78v58v68v71q0 85 -53.5 150t-135.5 82v5q0 39 -27.5 66.5t-66.5 27.5t-66.5 -27.5t-27.5 -66.5v-5q-82 -17 -135.5 -82t-53.5 -150v-71v-68v-58q-41 -31 -66 -78t-28 -100h94v-1h237h92h237v1h94zM484 -63h54q61 0 107 40.5t54 101.5h-375
q7 -61 53 -101.5t107 -40.5z" />
    <glyph glyph-name="uniE61D" unicode="&#xe61d;" 
d="M482 537q1 2 3 3q6 4 13 4q10 0 17 -8l286 -220q7 -7 7 -16q0 -10 -7 -16l-287 -221q-7 -7 -16.5 -7t-15.5 7q-8 8 -6 20v434q-2 12 6 20zM808 544h73v-473h-73v473zM143 517q-2 12 6 20l3 3q6 4 13 4q10 0 17 -8l287 -220q7 -7 6 -16q1 -10 -6 -16l-288 -221
q-7 -7 -16 -7t-16 7q-8 8 -6 20v434z" />
    <glyph glyph-name="uniE61E" unicode="&#xe61e;" 
d="M953 610v-444q0 -92 -65 -157t-157 -65h-389q-18 -3 -32 -3q-73 0 -104 46q-38 56 4 166q-7 22 -7 41q0 28 11 54q7 28 16.5 57t28 69t40.5 75.5t55 74t72 69t92.5 56t113.5 37.5q23 8 44 8q57 0 97.5 -41t40.5 -98.5t-40.5 -98t-97.5 -40.5q-39 0 -71.5 20t-50.5 53
q-111 -61 -157 -167q37 -17 60.5 -51.5t23.5 -76.5q0 -58 -40.5 -98.5t-98.5 -40.5q-53 0 -93 36q-12 -51 3 -73q10 -14 35 -19h444q69 0 118 49t49 118v444q0 69 -49 118t-118 49h-444q-69 0 -118 -49t-49 -118v-444h-56v444q0 92 65.5 157.5t157.5 65.5h444
q92 0 157 -65.5t65 -157.5z" />
    <glyph glyph-name="uniE61F" unicode="&#xe61f;" 
d="M748 661q24 0 40.5 16t16.5 38t-16.5 38t-40.5 16h-482q14 -25 14 -53.5t-14 -54.5h482zM410 139q0 36 11 71h-210q-5 0 -9 3.5t-4 9t4 9t9 3.5h220l1 1v1q32 68 99 102h-320q-5 0 -9 4t-4 9t4 9t9 4h384q4 0 7 -3q17 3 33 3q40 0 77 -14q2 -1 5 -1v248h-557
q-13 0 -22.5 9.5t-9.5 22.5t9.5 22t22.5 9q23 0 40 16t17 38t-17 38t-40 16v0h-1h-1q-22 0 -38 -16t-16 -38v-670l64 -61l98 94q9 9 21.5 9t22.5 -9l101 -98l36 35l-1 1l-1 2q-35 56 -35 121zM211 495h384q5 0 9 -4t4 -9t-4 -9t-9 -4h-384q-5 0 -9 4t-4 9t4 9t9 4zM885 429
l-124 -124q-1 -1 -4 -5q-51 34 -112 34q-85 0 -145 -60.5t-60 -145.5t60 -145.5t145 -60.5t145.5 60.5t60.5 145.5q0 61 -33 112l4 4l124 124q13 13 13 31t-12.5 30.5t-30.5 12.5t-31 -13zM786 128q0 -58 -41.5 -99.5t-99.5 -41.5t-99 41.5t-41 99.5t41 99.5t99 41.5
t99.5 -41.5t41.5 -99.5z" />
    <glyph glyph-name="uniE620" unicode="&#xe620;" 
d="M753 793h-124v31q1 2 1 3t-1 2q0 8 -6.5 14t-14.5 6h-153q-8 0 -14 -5.5t-7 -13.5v-4v-2v-31h-132v-122h451v122zM916 754h-120v-127h-534v127h-124q-18 0 -31 -13.5t-13 -31.5v-712q0 -19 12.5 -31.5t30.5 -12.5h781q18 0 30.5 12.5t12.5 31.5v711q0 19 -13 32.5
t-32 13.5zM197 58q0 59 47.5 104.5t123.5 60.5v55q-36 19 -57 54.5t-21 79.5q0 61 40.5 104.5t97.5 43.5q17 0 34 -5q43 -13 71 -52.5t28 -89.5q0 -44 -22 -80t-59 -54v-54q4 -1 6 -2l22 -5q65 -20 104.5 -63.5t39.5 -96.5h-455zM679 137q-24 43 -55 71.5t-88 49.5
q22 10 48 15l-1 48q13 27 20 63t0 68q-8 32 -36 78q32 20 63 20q46 0 79 -35.5t33 -85.5q0 -36 -18 -66t-47 -44v-46q60 -12 99.5 -49.5t40.5 -86.5h-138z" />
    <glyph glyph-name="uniE621" unicode="&#xe621;" 
d="M199 373l147 75q-2 10 -6.5 26.5t-20 64t-32 90t-42 92t-51 82.5t-58 50.5t-64.5 5.5q-45 -18 -41.5 -85.5t34 -149t69 -153t65.5 -98.5zM206 354l148 75q6 -7 15 -19t33 -51.5t43.5 -82t38 -107.5t24.5 -129l-114 -49q-71 82 -127 193q-45 90 -61 170zM418 -23l97 37
l-19 -83zM878 -101h-707q-18 0 -37 6t-38.5 18.5t-32 37.5t-12.5 59v156h34v-156q0 -24 9 -41.5t20 -25.5t25.5 -13t21 -5.5t10.5 -0.5h707q41 0 62 22t21 60v740q0 20 -5.5 35t-13 22t-17 11.5t-13.5 5t-7 0.5h-717v35h717q14 -1 28 -6.5t29 -17t24.5 -34t9.5 -51.5v-739
q0 -5 -0.5 -15t-8 -32t-22.5 -38q-31 -33 -87 -33zM574 623h282v-69h-282v69zM438 450h415v-66h-415v66zM580 246h270v-72h-270v72z" />
    <glyph glyph-name="uniE622" unicode="&#xe622;" 
d="M293 108zM231 108.5q0 25.5 18 44t44 18.5t44.5 -18.5t18.5 -44t-18.5 -44t-44.5 -18.5t-44 18.5t-18 44zM431 830h-275q-14 0 -24.5 -10t-10.5 -24v-825q0 -14 10.5 -24t24.5 -10h275q14 0 24 10t10 24v825q0 14 -10 24t-24 10zM225 727h137v-343h-137v343zM293 2
q-44 0 -75 31t-31 75.5t31 75.5t75 31t75.5 -31t31.5 -75.5t-31.5 -75.5t-75.5 -31zM712.5 181.5q-24.5 -3.5 -40 -23t-12 -44.5t23 -40t44.5 -12t40 23t12 44.5t-23 40t-44.5 12zM902 12l-104 790q-2 14 -13 22.5t-25 6.5l-263 -35q-14 -2 -22.5 -13t-6.5 -24l105 -791
q2 -13 13 -21.5t24 -6.5l264 35q13 1 21.5 12t6.5 25zM576 706l131 17l44 -329l-132 -17zM733.5 19.5q-42.5 -5.5 -76 20.5t-39.5 68.5t20 76t68.5 39.5t76.5 -20t39.5 -68.5t-20.5 -76.5t-68.5 -39.5z" />
    <glyph glyph-name="uniE623" unicode="&#xe623;" 
d="M915 32l-27 27q11 21 11 43v612q0 46 -36.5 77.5t-87.5 31.5h-558q-51 0 -87 -31.5t-36 -77.5v-612q0 -45 36 -77t87 -32h558q15 0 31 4l37 -37q15 -15 36 -15t36 14.5t15 36t-15 36.5zM217 63q-18 0 -31 11.5t-13 27.5v612q0 17 13 28.5t31 11.5h558q19 0 32 -11.5
t13 -28.5v-587l-51 52q-1 0 -6 4q39 60 39 132q0 101 -71 172t-171 71q-64 0 -118 -30.5t-87 -82.5h-118q-5 0 -9 -12t-4 -29t4 -28.5t9 -11.5h85q-5 -24 -5 -49q0 -44 16 -86h-96q-5 0 -9 -12t-4 -29t4 -29t9 -12h148q71 -75 175 -75q72 0 132 40q3 -4 4 -6l43 -43h-522z
M394 315q0 26 8 51q4 5 7 18q20 43 60.5 70t90.5 27q68 0 117 -48.5t49 -117.5t-49 -117.5t-117.5 -48.5t-117 48.5t-48.5 117.5zM237 580h141h19h104h37h57h66h94q5 0 9 12t4 29t-4 28.5t-9 11.5h-94h-66h-57h-37h-104h-19h-141q-5 0 -9 -11.5t-4 -28.5t4 -29t9 -12z" />
    <glyph glyph-name="uniE624" unicode="&#xe624;" 
d="M64 768v-192h896v192h-896zM64 384h448v128h-448v-128zM64 192h448v128h-448v-128zM64 0h448v128h-448v-128zM576 256h128v-256h128v256h128l-192 256z" />
    <glyph glyph-name="uniE625" unicode="&#xe625;" 
d="M847 87h-669q-15 0 -26 -11t-11 -26v-75q0 -15 11 -26t26 -11h669q15 0 26 11t11 26v75q0 15 -11 26t-26 11zM364 235q0 -30 21.5 -52t52.5 -22h149q30 0 52 22t22 52v223h223l-372 372l-371 -372h223v-223z" />
    <glyph glyph-name="uniE626" unicode="&#xe626;" 
d="M187 667l457 196q6 3 9 9.5t0 13t-9.5 9t-13.5 0.5l-456 -196q-7 -3 -9.5 -9.5t0 -13t9 -9.5t13.5 0zM725 467q43 0 82 -16q5 -2 11 -5h1q0 -1 1 -2h2h1l6 -4h1q0 -1 1 -1.5t2 -0.5l1 -1l3 -2v300q0 10 -6.5 16.5t-16.5 6.5q-5 0 -10 -2l-455 -195q-14 -6 -14 -21v-642
q0 -9 6.5 -16t16.5 -7q5 0 10 3l131 56q6 22 14 42v286q0 1 1 3q3 85 64.5 143.5t146.5 58.5zM287 564q-44 7 -77 28q-32 21 -54 55q-6 13 -20 13q-10 0 -16.5 -7t-6.5 -16v-646q0 -7 3 -12q29 -49 73 -76q38 -23 90 -31h5q10 0 16.5 7t6.5 16v646q0 9 -5.5 15.5t-14.5 7.5z
M241 611.5q4 -9.5 13 -5.5l421 181q9 4 5 13t-13 5l-421 -180q-9 -4 -5 -13.5zM642 829q-4 9 -13 5l-421 -180q-9 -4 -5 -13.5t13 -5.5l421 181q9 4 5 13zM734 777q-4 9 -14 5l-420 -180q-10 -4 -6 -13.5t14 -5.5l420 181q10 4 6 13zM894 6v232v1q1 8 1 17q0 72 -52 122
l-1 1l-1 1h-1v1l-1 1l-2 2h-1l-1 2l-1 1q-1 0 -2 1l-1 1l-1 1h-1l-1 1v1h-1l-1 1q-1 0 -2 1l-1 1l-2 1l-1 1q-1 1 -2 1l-1 1q-1 0 -2 1t-3 2h-1l-2 2q-3 1 -6 3q-1 0 -2 1h-1v1q-6 2 -9 4q-32 13 -66 13q-69 0 -118 -47.5t-52 -115.5v-2v-248q40 59 108 80t133 -3t98 -84z
M855 254q0 -55 -38.5 -93t-92.5 -38t-92.5 38t-38.5 93v1q16 -1 31 -1q100 0 166 50q24 -30 65 -50zM533 -111h179l-63 174q-48 -23 -79 -70t-37 -104zM795 63l-54 -174h170q-6 57 -37 104t-79 70zM775 244q-7 0 -12.5 -5.5t-5.5 -12.5t5.5 -12t12.5 -5t12 5t5 12t-5 12.5
t-12 5.5zM669 244q-7 0 -12 -5.5t-5 -12.5t5 -12t12 -5t12.5 5t5.5 12t-5.5 12.5t-12.5 5.5z" />
    <glyph glyph-name="uniE627" unicode="&#xe627;" 
d="M246 310q0 -74 33 -145q12 66 39 111.5t69.5 72t93.5 38.5t122 16v-153l354 293l-354 292v-179q-2 0 -5 0.5t-5 0.5q-94 0 -174 -46.5t-126.5 -126.5t-46.5 -174zM823 282v-205h-617v617h274v137h-342q-37 0 -53 -16t-16 -53v-754q0 -37 16 -52.5t53 -15.5h754
q36 0 52 15.5t16 52.5v412z" />
    <glyph glyph-name="uniE628" unicode="&#xe628;" horiz-adv-x="1028" 
d="M944 69l-352 608q-32 56 -77.5 56t-78.5 -56l-351 -608q-32 -56 -9 -95.5t87 -39.5h703q64 0 87 39.5t-9 95.5zM466 504.5q19 20.5 48.5 20.5t48 -20.5t18.5 -50.5q0 -6 -6.5 -46t-15.5 -96.5t-12 -96.5h-64q-3 41 -12 97t-16.5 96t-7.5 46q0 30 19 50.5zM562 61
q-20 -19 -47.5 -19t-47.5 19t-20 46.5t20 47.5t47.5 20t47.5 -20t20 -47.5t-20 -46.5z" />
    <glyph glyph-name="uniE629" unicode="&#xe629;" 
d="M517 -101q-97 0 -185.5 38t-152.5 102t-102 152.5t-38 185.5t38 185.5t102 152.5t152.5 102t185.5 38t185.5 -38t152.5 -102t102 -152.5t38 -185.5t-38 -185.5t-102 -152.5t-152.5 -102t-185.5 -38zM802 220l-313 92h1v1v335q0 17 -13 29.5t-31 12.5t-31 -12.5t-13 -29.5
v-335q0 -13 10 -25q-4 -16 4 -30t25 -19l335 -99q17 -5 33.5 3t21.5 24.5t-3 32t-26 20.5z" />
    <glyph glyph-name="uniE62A" unicode="&#xe62a;" 
d="M838 514q-11 3 -22 3h-12v-39h-117v39h-351v-39h-116v39h-12q-11 0 -23 -3q-30 -7 -50 -32.5t-20 -57.5v-107h84q10 0 17 -6.5t7 -16.5t-7 -16.5t-17 -6.5h-84v-59h84q10 0 17 -6.5t7 -16t-7 -16.5t-17 -7h-84v-58h84q10 0 17 -7t7 -16.5t-7 -16.5t-17 -7h-84v-35
q0 -39 27 -66t66 -27h608q38 0 65.5 27.5t27.5 65.5v398q0 32 -20 57.5t-51 32.5zM549 160v-88h-74v88q-26 11 -42 34.5t-16 52.5q0 39 28 67t67 28t67 -28t28 -67q-1 -29 -16.5 -52.5t-41.5 -34.5zM336 631q0 36 25.5 61.5t62.5 25.5h176q36 0 61.5 -25.5t25.5 -61.5v-114
h117v114q0 85 -60 144.5t-144 59.5h-176q-85 0 -144.5 -60t-59.5 -144v-114h116v114z" />
    <glyph glyph-name="uniE62B" unicode="&#xe62b;" 
d="M286.5 519q-23.5 0 -40 -17t-16.5 -41t16.5 -41t40 -17t39.5 17t16 41t-16 41t-39.5 17zM511 519q-23 0 -39.5 -17t-16.5 -41t16.5 -41t39.5 -17t39.5 17t16.5 41t-16.5 41t-39.5 17zM735.5 519q-23.5 0 -40 -17t-16.5 -41t16.5 -41t40 -17t40 17t16.5 41t-16.5 41
t-40 17zM848 810h-674q-47 0 -79.5 -34t-32.5 -82v-437q0 -49 34 -86.5t81 -37.5h171q13 -14 51.5 -54t70.5 -73l31 -32q10 -11 20 0q90 102 149 159h175q47 0 81 37.5t34 86.5v437q0 48 -33 82t-79 34zM904 257q0 -25 -17.5 -45.5t-41.5 -20.5h-172q-9 0 -19 -5.5
t-15 -10.5l-5 -6l-121 -125l-121 125q-23 22 -43 22h-172q-24 0 -41.5 20.5t-17.5 45.5v437q0 24 16.5 41t39.5 17h674q23 0 39.5 -17t16.5 -41v-437z" />
    <glyph glyph-name="uniE62C" unicode="&#xe62c;" 
d="M512 831q-97 0 -179.5 -48t-130.5 -130.5t-48 -179.5q0 -71 39 -166.5t94 -175.5t118 -136.5t107 -56.5t107 56.5t118 136.5t94 175.5t39 166.5q0 97 -48 179.5t-130.5 130.5t-179.5 48zM512 293q-74 0 -127 53t-53 127t53 127t127 53t127 -53t53 -127t-53 -127t-127 -53
zM512 293z" />
    <glyph glyph-name="uniE62D" unicode="&#xe62d;" 
d="M882 787q28 0 47 -19.5t19 -47.5v-51q0 -28 -19 -47.5t-47 -19.5h-740q-28 0 -47 19.5t-19 47.5v51q0 28 19 47.5t47 19.5h740zM882 475q28 0 47 -19.5t19 -47.5v-51q0 -28 -19 -47.5t-47 -19.5h-740q-28 0 -47 19.5t-19 47.5v51q0 28 19 47.5t47 19.5h740zM882 163
q28 0 47 -19.5t19 -47.5v-51q0 -28 -19 -47t-47 -19h-740q-28 0 -47 19t-19 47v51q0 28 19 47.5t47 19.5h740zM882 163z" />
    <glyph glyph-name="uniE62E" unicode="&#xe62e;" 
d="M896 -128h-64v128h-128v128h-128v64h-128v64v27q-62 -27 -128 -27q-133 0 -226.5 93.5t-93.5 226.5t93.5 226.5t226.5 93.5t226.5 -93.5t93.5 -226.5q0 -66 -27 -128h91v-128l320 -256v-192h-128zM256 768q-53 0 -90.5 -37.5t-37.5 -90.5t37.5 -90.5t90.5 -37.5
t90.5 37.5t37.5 90.5t-37.5 90.5t-90.5 37.5z" />
    <glyph glyph-name="uniE62F" unicode="&#xe62f;" 
d="M512 832q-122 0 -225 -60t-163 -163t-60 -225t60 -225t163 -163t225 -60t225 60t163 163t60 225t-60 225t-163 163t-225 60zM736 235l-75 -75l-149 149l-149 -149l-75 75l149 149l-149 149l75 75l149 -149l149 149l75 -75l-149 -149zM736 235z" />
    <glyph glyph-name="uniE630" unicode="&#xe630;" 
d="M384 250l181 51l-130 129zM867 602l-129 128l-284 -282l129 -129zM830 126q0 -34 -24 -57.5t-57 -23.5h-486q-33 0 -57 23.5t-24 57.5v485q0 34 24 57.5t57 23.5h324l81 81h-432q-55 0 -94.5 -39.5t-39.5 -95.5v-539q0 -56 39.5 -95.5t94.5 -39.5h540q56 0 95.5 39.5
t39.5 95.5v431l-81 -81v-323zM928 710l-81 80q-10 10 -25 9.5t-25 -10.5l-39 -39l129 -128l39 38q11 11 11.5 25.5t-9.5 24.5z" />
    <glyph glyph-name="uniE631" unicode="&#xe631;" 
d="M907 730h-790q-27 0 -46.5 -19.5t-19.5 -46.5v-560q0 -27 19.5 -46.5t46.5 -19.5h790q27 0 46.5 19.5t19.5 46.5v560q0 27 -19.5 46.5t-46.5 19.5zM907 170q0 -27 -19.5 -46.5t-46.5 -19.5h-658q-27 0 -46.5 19.5t-19.5 46.5v428q0 27 19.5 46.5t46.5 19.5h658
q27 0 46.5 -19.5t19.5 -46.5v-428zM858 294h-258q-6 0 -10.5 -4.5t-4.5 -11.5v-31q0 -6 4.5 -10.5t10.5 -4.5h258q7 0 11.5 4.5t4.5 10.5v31q0 7 -4.5 11.5t-11.5 4.5zM327 357q-87 0 -132 -45.5t-45 -121.5v-20h353v29q0 71 -44.5 114.5t-131.5 43.5zM326 373q38 0 68 30.5
t30 67.5q0 36 -30.5 65t-67.5 29q-38 0 -67 -26.5t-29 -62.5q0 -37 29.5 -70t66.5 -33zM858 499h-258q-6 0 -10.5 -4.5t-4.5 -10.5v-31q0 -6 4.5 -10.5t10.5 -4.5h258q7 0 11.5 4.5t4.5 10.5v31q0 6 -4.5 10.5t-11.5 4.5zM858 396h-258q-6 0 -10.5 -4.5t-4.5 -10.5v-31
q0 -6 4.5 -10.5t10.5 -4.5h258q7 0 11.5 4.5t4.5 10.5v31q0 6 -4.5 10.5t-11.5 4.5z" />
    <glyph glyph-name="uniE632" unicode="&#xe632;" 
d="M512 896q-139 0 -257 -68.5t-186.5 -186.5t-68.5 -257t68.5 -257t186.5 -186.5t257 -68.5t257 68.5t186.5 186.5t68.5 257t-68.5 257t-186.5 186.5t-257 68.5zM512 -80q-192 0 -328 136t-136 328t136 328t328 136t328 -136t136 -328t-136 -328t-328 -136zM512 800
q-172 0 -294 -122t-122 -294t122 -294t294 -122t294 122t122 294t-122 294t-294 122zM722 629l-179 -196v-29h150q11 -1 18.5 -8.5t7.5 -18t-7.5 -18t-18.5 -8.5v0h-1h-149v-55h150q11 0 18.5 -7.5t7.5 -18.5t-7.5 -18.5t-18.5 -7.5v0h-1h-149v-125v16q0 -14 -10 -24
t-24 -10t-24 10t-10 24v-16v125h-147q-11 0 -18.5 7.5t-7.5 18.5t7.5 18.5t18.5 7.5v0h147v55h-147v0q-11 0 -19 8t-8 18.5t8 18.5t19 8v0h147v29l-176 196q0 1 -0.5 3t-1.5 7t-0.5 9.5t2.5 9t6.5 7t13 2.5t20.5 -4q9 -3 18 -11.5t14 -15.5l4 -7l137 -147l139 147
q17 29 40 34q25 5 32.5 -3.5t3.5 -19.5z" />
    <glyph glyph-name="uniE633" unicode="&#xe633;" 
d="M528 838q-121 0 -223.5 -51t-162 -139.5t-59.5 -192.5q0 -73 22 -134t55.5 -101t83 -78t93.5 -61.5t100 -56t91 -57.5q39 32 95 66.5t101 58t93 59t80.5 73t53.5 97t21 134.5q0 104 -59 192.5t-161.5 139.5t-223.5 51zM319 355q-37 0 -63.5 26.5t-26.5 64t26.5 64
t64 26.5t64 -26.5t26.5 -64t-26.5 -64t-64.5 -26.5zM544 355q-38 0 -64.5 26.5t-26.5 64t26.5 64t64 26.5t64 -26.5t26.5 -64t-26.5 -64t-63.5 -26.5zM759 355q-37 0 -63.5 26.5t-26.5 64t26.5 64t64 26.5t64 -26.5t26.5 -64t-26.5 -64t-64.5 -26.5z" />
    <glyph glyph-name="uniE634" unicode="&#xe634;" 
d="M744 277v-250h-464v250h-214l446 464l446 -464h-214z" />
    <glyph glyph-name="uniE635" unicode="&#xe635;" 
d="M86 53h446q44 -37 99 -46h-545q-10 0 -16.5 7t-6.5 16t6.5 16t16.5 7zM945 8l-110 94q-17 15 -33 14q41 49 41 113q0 72 -50.5 123t-122.5 51t-123 -51t-51 -123t51 -123t123 -51q64 0 112 42q0 -17 15 -34l93 -109q12 -14 29 -15t29 11t11 29t-14 29zM670 113
q-48 0 -82 34t-34 82t34 82t82 34t82 -34t34 -82t-34 -82t-82 -34zM257 383q5 0 9 -4t4 -10v-267q0 -6 -4 -10t-9 -4h-90q-5 0 -9 4t-4 10v267q0 6 4 10t9 4h90zM429 653q6 0 10 -4t4 -9v-538q0 -6 -4 -10t-10 -4h-89q-6 0 -10 4t-4 10v538q0 5 4 9t10 4h89v0zM498 361v127
q0 5 4 9t10 4h89q6 0 10 -4t4 -9v-50q-71 -18 -117 -77z" />
    <glyph glyph-name="uniE636" unicode="&#xe636;" 
d="M346 331q-2 -2 -12 -13.5t-12 -14.5q-11 -15 -14.5 -38t1.5 -39q4 -13 15 -21t20 -10t25 -4q22 -2 47 -2.5t58.5 0.5t47.5 1h150q51 -1 67 35q20 44 -16 82l-24 24q-27 27 -2 58q33 40 44 58q53 83 36.5 178.5t-92.5 157.5q-77 61 -175.5 56t-168.5 -74
q-48 -48 -62.5 -116t4.5 -136t64 -124q9 -13 11 -24t-1.5 -18t-10.5 -16zM943 62q0 82 -76 82h-688q-39 -1 -57 -19.5t-19 -58.5v-89h840v85zM150 -121h744v76h-744v-76zM150 -121z" />
    <glyph glyph-name="uniE637" unicode="&#xe637;" 
d="M512 818q-89 0 -169.5 -34.5t-138.5 -92.5t-92.5 -138.5t-34.5 -169t34.5 -169.5t92.5 -139t138.5 -92.5t169.5 -34.5t169.5 34.5t138.5 92.5t92.5 139t34.5 169.5t-34.5 169t-92.5 138.5t-138.5 92.5t-169.5 34.5zM513 627q23 0 39 -16t16 -39t-16 -39t-39 -16t-39 16
t-16 39t16 39t39 16zM561 147h-39q-15 0 -28 11t-13 23v222h-14q-15 0 -25.5 10.5t-10.5 26t10.5 26t25.5 10.5h46q32 -2 32 -24v-232h16q15 0 25.5 -10.5t10.5 -25.5t-10.5 -26t-25.5 -11zM561 147z" />
    <glyph glyph-name="uniE638" unicode="&#xe638;" 
d="M582 -98l17 100l-72 70q-40 39 -24 88q7 23 26 38t45 18l87 13q-6 4 -10 8q-16 14 -24 30q-7 16 -8 32t2 31q2 11 6 21q4 8 10 14q8 7 15 12q8 6 17 14q8 6 15 19q7 14 11 26q6 16 9 32q11 3 20 11q8 7 14 20q7 14 10 34q2 16 0 27q-3 10 -7 19q-4 8 -11 12q1 42 -5 81
q-5 34 -18 74q-13 39 -38 72q-12 14 -30 28q-16 12 -41 25q-23 10 -51 18q-27 7 -56 7q-22 0 -49 -4q-26 -5 -49 -15q-24 -10 -48 -28q-24 -17 -44 -45q-20 -29 -31 -66q-10 -37 -14 -69q-5 -37 -4 -78q-9 -11 -13 -21t-5 -24q-2 -14 3 -31q5 -18 12 -27q8 -9 14 -14t14 -7
q6 -18 10 -31q6 -15 11 -26q7 -13 15 -20q15 -13 31 -28q13 -13 15 -37q1 -18 1 -29q0 -13 -4 -25q-5 -12 -17 -25t-33 -25q-26 -18 -61 -27q-21 -5 -148 -49q-33 -11 -57 -30q-25 -19 -31 -57q-5 -35 -6 -45t2 -33q5 -42 16 -50q10 -7 53 -17q26 -6 76 -14t152.5 -17.5
t198.5 -9.5q42 0 80 2q-1 14 1 28zM1004 148l-106 15q-12 2 -25 11t-18 20l-48 97q-5 11 -13 11t-13 -11l-48 -97q-5 -11 -18 -20t-25 -11l-106 -15q-13 -2 -15 -9.5t6 -16.5l77 -75q9 -8 14 -23t3 -27l-18 -106q-3 -19 10 -19q5 0 11 3l95 50q12 6 27 6t26 -6l95 -50
q6 -3 11 -3q14 0 11 19l-18 106q-2 12 2.5 27t13.5 23l77 75q9 9 7 16.5t-15 9.5z" />
    <glyph glyph-name="uniE639" unicode="&#xe639;" 
d="M784 609l-126 126l63 63q15 15 37.5 15t37.5 -15l51 -51q15 -15 15 -37.5t-15 -37.5zM418 243l-126 126l342 340l126 -126zM191 140l77 205l124 -125zM756 97q14 0 23 -9.5t9 -22.5t-9 -22.5t-23 -9.5h-564q-13 0 -22 9.5t-9 22.5t9 22.5t22 9.5h564z" />
    <glyph glyph-name="uniE63A" unicode="&#xe63a;" 
d="M406 511h-211q-5 0 -8.5 -4t-3.5 -9t3.5 -8.5t8.5 -3.5h211q5 0 8.5 3.5t3.5 8.5t-3.5 9t-8.5 4zM406 408h-211q-5 0 -8.5 -3.5t-3.5 -9t3.5 -9t8.5 -3.5h211q5 0 8.5 3.5t3.5 9t-3.5 9t-8.5 3.5zM406 306h-211q-5 0 -8.5 -4t-3.5 -9t3.5 -8.5t8.5 -3.5h211q5 0 8.5 3.5
t3.5 8.5t-3.5 9t-8.5 4zM604 498q0 -5 3.5 -8.5t8.5 -3.5h211q5 0 8.5 3.5t3.5 8.5t-3.5 9t-8.5 4h-211q-5 0 -8.5 -4t-3.5 -9zM827 408h-211q-5 0 -8.5 -3.5t-3.5 -9t3.5 -9t8.5 -3.5h211q5 0 8.5 3.5t3.5 9t-3.5 9t-8.5 3.5zM827 306h-211q-5 0 -8.5 -4t-3.5 -9t3.5 -8.5
t8.5 -3.5h211q5 0 8.5 3.5t3.5 8.5t-3.5 9t-8.5 4zM720 722q-146 0 -209 -42q-62 42 -208 42q-44 0 -84.5 -5t-76.5 -15.5t-57.5 -29t-21.5 -43.5v-544q0 -15 11 -24t26 -7q93 16 202.5 16t203.5 -16h1h1h2h1h5h1q93 16 202.5 16t203.5 -16h5q12 0 20 7q12 9 12 24v544
q0 25 -21.5 43.5t-57.5 29t-76.5 15.5t-84.5 5zM125 121v505q12 11 60.5 22t117.5 11t117 -11t60 -22v-505q-84 12 -177 12t-178 -12zM897 121q-177 24 -355 0v505q12 11 60.5 22t117.5 11t117 -11t60 -22v-505z" />
    <glyph glyph-name="uniE63B" unicode="&#xe63b;" 
d="M357 527q24 24 22 39q0 10 -5 18q-1 2 -11 11l-21 21q-3 3 -99 100l-11 12q-8 7 -12 10q-10 11 -13 12q-6 4 -15 5q-6 0 -13 -3.5t-10.5 -6.5t-13.5 -13q-7 -7 -18.5 -19t-19.5 -19q95 -95 203 -204l19 19zM504 188q-7 5 -21.5 17t-21.5 17q-10 8 -14 11q-12 11 -18 17
q-9 8 -20 18l-5 5l-14 14l-7 7q-4 4 -11 11.5t-9 9.5q-1 1 -17 19q-3 3 -10 13q-4 5 -13 16t-14 17q-39 60 -7 92l-100 100l-103 103q-8 -8 -13 -17q-9 -17 -14 -36q-16 -60 1 -132q7 -34 28 -84q6 -14 30 -58q5 -9 16.5 -26t12.5 -19q8 -11 10 -15q6 -8 18 -23t17 -22
q2 -3 6.5 -8t7.5 -8q4 -4 11.5 -13t10.5 -13q22 -23 27 -28q1 -1 3 -3.5t3 -3.5q9 -8 24 -24q1 -1 3.5 -3t3.5 -3q23 -22 25 -24l8 -7q5 -5 15 -13.5t13 -11.5q12 -9 26 -21q7 -5 17 -12q5 -4 21 -15t25 -17q41 -24 54 -31q27 -13 56 -24q17 -7 26 -9q3 -1 14 -4t17 -4
q66 -14 117 -1q23 5 38 14q15 7 23 16q-24 24 -95 95.5t-108 108.5q-14 -14 -31.5 -14t-29.5 6t-32 20zM875 81q-2 3 -12 13q-20 20 -21 20q-87 88 -96 97l-11 11l-11 11q-11 11 -15 13h3q-5 9 -22 10q-10 0 -19 -6l-27 -28l-29 -28q88 -87 203 -203l18 19l20 19
q10 9 13.5 13t7 10.5t2.5 13.5q-1 9 -4 15zM741 466h73q0 91 -64 155.5t-155 64.5v-73q61 0 103.5 -43t42.5 -104zM595 833v-74q121 0 206.5 -85.5t85.5 -207.5h74q0 100 -49 184t-133.5 133.5t-183.5 49.5z" />
    <glyph glyph-name="uniE63C" unicode="&#xe63c;" 
d="M846 795h-671q-46 0 -79 -33t-33 -79v-448q0 -46 33 -79t79 -33h220l116 -141l115 141h220q47 0 79.5 33t32.5 79v448q0 46 -32.5 79t-79.5 33zM256.5 374q-35.5 0 -60.5 25t-25 60.5t25 60.5t60.5 25t60.5 -25t25 -60.5t-25 -60.5t-60.5 -25zM509.5 374
q-35.5 0 -60.5 25t-25 60.5t25 60.5t60.5 25t60.5 -25t25 -60.5t-25 -60.5t-60.5 -25zM761.5 374q-35.5 0 -60.5 25t-25 60.5t25 60.5t60.5 25t60.5 -25t25 -60.5t-25 -60.5t-60.5 -25z" />
    <glyph glyph-name="uniE63D" unicode="&#xe63d;" 
d="M577 347h-320q-8 0 -8 -8t8 -8h320q8 0 8 8t-8 8zM842 658h-160q1 32 -13 58q-36 61 -157 62q-120 1 -157 -60q-15 -26 -13 -60h-160q-49 0 -84 -35t-35 -84v-427q0 -49 35 -84t84 -35h660q49 0 84 35t35 84v427q0 49 -35 84t-84 35zM398 693q22 36 113 35q93 0 115 -37
q8 -14 6 -33h-240q-2 21 6 35zM682 204q-37 0 -66.5 21t-42.5 54h-103l-48 34l-54 -38l-42 25l-52 -17l-49 46l16 41h336q14 30 42.5 48.5t62.5 18.5q49 0 83 -34t34 -82.5t-34 -82.5t-83 -34zM729 348q-11 0 -19 -8t-8 -19.5t8 -19.5t19.5 -8t19.5 8t8 19.5t-8 19.5t-20 8z
" />
    <glyph glyph-name="uniE63E" unicode="&#xe63e;" 
d="M912 606l-46 -46q-36 -37 -88.5 -37t-89 37t-36.5 89t37 89l46 46q20 19 8 36t-46 12q-74 -12 -127 -65q-42 -42 -58 -98t-4 -112l-386 -386q-36 -36 -36 -88.5t36.5 -89t88.5 -36.5t89 37l386 385q56 -12 112 4.5t98 58.5q53 53 65 127q5 33 -12 45t-37 -8zM241 53
q-12 -12 -29.5 -12t-30 12t-12.5 29.5t12.5 29.5t30 12t29.5 -12t12 -29.5t-12 -29.5zM199 598l145 -145l59 59l-145 146l-32 62l-104 74l-59 -59l74 -104zM685 290q-6 6 -15 6t-15 -6l-89 -89q-6 -6 -6 -14.5t6 -14.5l210 -210q24 -24 59 -24t59.5 24.5t24.5 59t-25 59.5z
" />
    <glyph glyph-name="uniE63F" unicode="&#xe63f;" 
d="M749 663q1 0 2 -1q0 -1 1 -1l-2 1zM731 667q-5 2 -16 2q10 0 16 -2zM656 581q-10 -1 -16.5 -8t-6.5 -16v-2q1 -10 8 -16t16 -6q10 1 16.5 7.5t6.5 16.5v1q-1 10 -8 16.5t-16 6.5zM240 579h323v-43h-323v43zM830 147q0 -1 -1 -1q1 0 1 1zM872 749q-24 20 -57 20h-503
q-36 0 -58 -20q-25 -23 -25 -53v-25h-16q-37 0 -58 -20q-27 -24 -27 -56v-521q0 -33 25 -53q24 -20 58 -20h501q36 0 58 20q27 24 27 53v25h14q36 0 58 19q26 24 26 53v524q4 30 -23 54zM171 595q0 12 12.5 20.5t29.5 8.5h14h43h443q17 0 29.5 -8.5t12.5 -20.5v-128v30h-584
v98zM811 143h-14v452q0 11 -2 18q0 1 -1 3q0 2 -2 3q0 2 -2 3q0 1 -0.5 2t-0.5 2q-1 1 -2 2.5t-1.5 2t-2 3t-2.5 3.5q-1 2 -3.5 4t-3.5 4q-3 3 -6 5l-3 3l-2 2q-1 0 -1.5 0.5t-1.5 0.5l-8 5q-1 0 -1 1q-2 0 -2 1q-1 0 -2 0.5t-1.5 0.5t-2 1t-2.5 1h-2q-1 0 -3.5 0.5
t-4.5 0.5v0h-2h-3q-6 2 -17 2h4h2h-2h-4h-439v26q0 6 2 9.5t6 7.5q13 13 34 13h501q17 0 29.5 -8.5t12.5 -20.5v-521q0 -4 -4.5 -11.5t-11.5 -11.5q-13 -9 -28 -9z" />
    <glyph glyph-name="uniE640" unicode="&#xe640;" 
d="M365 277q72 28 147 28t147 -28q45 34 71 84.5t26 109.5q0 101 -71.5 172t-172.5 71t-172.5 -71t-71.5 -172q0 -59 26 -109.5t71 -84.5zM512 276q-103 0 -190 -50.5t-137.5 -137.5t-50.5 -190h756q0 103 -50.5 190t-137.5 137.5t-190 50.5zM915 467q0 109 -54 202
t-147 147t-202 54t-202 -54t-147 -147t-54 -202q0 -17 2 -38q-2 -10 -2 -20q0 -35 20 -59t47.5 -24t47.5 24t20 59q0 31 -17.5 54.5t-42.5 27.5q10 128 104 216.5t224 88.5q127 0 220 -85t107 -209q-26 -2 -44 -26t-18 -57q0 -34 19.5 -58.5t47.5 -24.5q27 0 46.5 23.5
t20.5 57.5q4 28 4 50z" />
    <glyph glyph-name="uniE641" unicode="&#xe641;" 
d="M195 250q-58 29 -93.5 84.5t-35.5 122.5q0 90 61 156t150 73q26 64 84 103.5t129 39.5t128.5 -39t83.5 -102q13 1 26 1q95 0 162.5 -67t67.5 -163q0 -68 -37 -124.5t-97 -84.5h-143v290h-363v-290h-123zM401 474v-282h-98l197 -253l197 253h-99v282h-197z" />
    <glyph glyph-name="uniE642" unicode="&#xe642;" 
d="M878 668.5q-11 15.5 -29.5 25.5t-46.5 10h-43q-23 0 -43 1v64q0 26 -12.5 45t-45.5 19h-295q-24 0 -41 -19t-17 -45v-63h-84q-24 0 -42 -9t-29.5 -23t-17 -30.5t-5.5 -29.5q0 -27 1 -32q0 -4 1 -5h58v-527q0 -27 9 -48t24.5 -36t37 -23t46.5 -8h420q26 0 46.5 8.5
t34.5 23t21.5 33.5t7.5 39v538h62v6q0 3 0.5 7.5t0.5 11.5q0 15 -4 33t-15 33.5zM363 769h295v-65h-295v65zM364 98q0 -42 -30 -42q-16 0 -22 10t-6 32v475h58v-475zM539 98q0 -22 -5.5 -31.5t-21.5 -9.5q-31 0 -31 41v475h58v-475zM717 100q0 -22 -5.5 -31.5t-22.5 -9.5
q-31 0 -31 41v473h59v-473z" />
    <glyph glyph-name="uniE643" unicode="&#xe643;" 
d="M852.5 278q-44.5 0 -76 31.5t-31.5 76t31.5 76t76 31.5t76 -31.5t31.5 -76t-31.5 -76t-76 -31.5zM511.5 278q-44.5 0 -76 31.5t-31.5 76t31.5 76t76 31.5t76 -31.5t31.5 -76t-31.5 -76t-76 -31.5zM170.5 278q-44.5 0 -76 31.5t-31.5 76t31.5 76t76 31.5t76 -31.5
t31.5 -76t-31.5 -76t-76 -31.5z" />
    <glyph glyph-name="uniE644" unicode="&#xe644;" 
d="M64 115h156v422h-156v-422zM64 14q0 -22 14.5 -37t36.5 -15h54q22 0 36.5 15t14.5 37v49h-156v-49zM169 698h-54q-22 0 -36.5 -15.5t-14.5 -37.5v-55l156 2v53q0 22 -14.5 37.5t-36.5 15.5zM276 14q0 -22 13.5 -37t34.5 -15h109q22 0 37.5 15.5t15.5 36.5v48h-210v-48z
M276 118l210 -1v527h-210v-526zM433 806h-109q-21 0 -34.5 -15.5t-13.5 -37.5v-55l210 -2v57q0 22 -15.5 37.5t-37.5 15.5zM749 697h-159q-22 0 -37.5 -15.5t-15.5 -37.5v-631q0 -22 15.5 -37.5t37.5 -15.5h159q22 0 37.5 15.5t15.5 37.5v631q0 22 -15.5 37.5t-37.5 15.5z
M855 170l105 3v153l-105 -1v-155zM855 11q0 -23 13 -37t35 -14h8q22 0 35.5 15.5t13.5 37.5v104l-105 -2v-104zM911 540h-8q-21 0 -34.5 -16t-13.5 -39v-103h105v106q0 22 -13.5 37t-35.5 15z" />
    <glyph glyph-name="uniE645" unicode="&#xe645;" 
d="M609 238v61v71q17 12 35.5 34.5t28.5 39.5l10 16q35 58 33.5 85t-20.5 33l-20 5q2 53 -6.5 95.5t-23 68t-34 44t-37 26.5t-35 12t-25.5 4.5t-10 -0.5q-4 1 -9.5 0.5t-22.5 -5t-32 -13t-33.5 -27t-31.5 -44t-21.5 -67.5t-7.5 -94l-20 -5q-50 -24 13 -118q36 -64 74 -90
v-71q-10 -3 -27 -10t-63 -27t-84 -39.5t-77 -45t-55 -45.5q-19 -24 -25.5 -47t-3.5 -38.5t10 -28.5t13 -18l6 -7l410 -3h1h2l88 1q-4 4 -10.5 12t-18.5 34t-16 53.5t6 68t39 79.5zM767.5 289q-73.5 0 -125 -51.5t-51.5 -125t51.5 -125.5t125 -52t125.5 52t52 125.5t-52 125
t-125.5 51.5zM746 15l-19 19l-89 88l34 34l73 -72l118 125l35 -33z" />
    <glyph glyph-name="uniE646" unicode="&#xe646;" 
d="M511 833q-91 0 -174 -35.5t-143.5 -95.5t-96 -143t-35.5 -174t35.5 -174t96 -143t143.5 -96t174 -36t174 36t143 96t95.5 143t35.5 174t-35.5 174t-95.5 143t-143 95.5t-174 35.5zM780 334h-220v-219h-102v219h-219v102h219v219h102v-219h220v-102z" />
    <glyph glyph-name="uniE647" unicode="&#xe647;" 
d="M939 896h-854q-35 0 -60 -25t-25 -60v-854q0 -35 25 -60t60 -25h854q35 0 60 25t25 60v854q0 35 -25 60t-60 25zM811 299h-214v-214h-170v214h-214v170h214v214h170v-214h214v-170z" />
    <glyph glyph-name="uniE648" unicode="&#xe648;" 
d="M804 388l-75 -127l-135 264l-155 -299l-145 247l-44 -92h-128q11 -12 23 -23l3 -3l364 -364l374 374l3 3q10 10 18 20h-103zM228 417l63 132l146 -250l157 303l138 -267l52 88h147q27 52 27 114q0 100 -70.5 170.5t-170.5 70.5q-64 0 -118.5 -31.5t-86.5 -84.5
q-33 53 -87.5 84.5t-118.5 31.5q-100 0 -170.5 -70.5t-70.5 -170.5q0 -64 32 -120h131z" />
    <glyph glyph-name="uniE649" unicode="&#xe649;" 
d="M0 523v-278h240l365 -373v1024l-380 -373h-225zM743 804v-116q79 -58 123.5 -137t44.5 -167.5t-44.5 -167t-123.5 -136.5v-116q129 69 205 179.5t76 240t-76 240.5t-205 180z" />
    <glyph glyph-name="uniE64A" unicode="&#xe64a;" 
d="M512 -80q-99 0 -189.5 39t-156 104t-104 155.5t-38.5 189.5t38.5 189.5t104 155.5t156 104t189.5 39t189.5 -39t155.5 -104t103.5 -155.5t38.5 -189.5t-38.5 -189.5t-103.5 -155.5t-155.5 -104t-189.5 -39zM509 805q-107 0 -196.5 -53.5t-140.5 -144.5t-51 -198.5
t51 -197.5t140 -141.5t197 -51.5t199 51.5t144 141.5t53 197.5t-53 199t-144 144.5t-199 53zM707 360h-146v-147q0 -20 -14.5 -34t-34.5 -14t-34.5 14t-14.5 34v147h-146q-20 0 -34.5 14t-14.5 34q0 21 14.5 35t34.5 14h146v146q0 21 14.5 35t34.5 14t34.5 -14t14.5 -35
v-146h146q20 0 34.5 -14t14.5 -35q0 -20 -14.5 -34t-34.5 -14z" />
    <glyph glyph-name="uniE64B" unicode="&#xe64b;" 
d="M512 832q-91 0 -174 -35.5t-143 -95.5t-95.5 -143t-35.5 -174t35.5 -174t95.5 -143t143 -95t174 -35t174 35t143 95t95 143t35 174t-35 174t-95 143t-143 95.5t-174 35.5zM753 499l-303 -303q-10 -11 -23 1l-20 21l-136 135q-5 6 -5 13t5 12l37 37q5 5 12.5 5t12.5 -5
l107 -107l252 252q10 11 23 -1l37 -37q12 -12 1 -23zM753 499z" />
    <glyph glyph-name="uniE64C" unicode="&#xe64c;" 
d="M797 409h99v-56h-99v56zM519 145h56v-99h-56v99zM804 598l-70 -70l-39 40l70 70zM765 124l-70 70l39 39l70 -70zM389 231l131 132v266h85v-300q-157 -156 -157 -157zM570 841v-79q101 0 187.5 -50.5t136.5 -136.5t50 -187.5t-50 -187.5t-136.5 -136.5t-187.5 -50.5
q-141 0 -246.5 93.5t-124.5 230.5l57 -56l57 57l-156 156l-157 -156l57 -57l61 62q12 -114 74.5 -207.5t162 -147.5t215.5 -54q92 0 176 36t145 96.5t97 144.5t36 176.5t-36 176.5t-97 144.5t-145 96.5t-176 36z" />
    <glyph glyph-name="uniE64D" unicode="&#xe64d;" 
d="M211 475q-38 0 -64.5 -26.5t-26.5 -64.5t26.5 -64.5t64.5 -26.5t65 26.5t27 64.5t-27 64.5t-65 26.5zM503 475q-38 0 -65 -26.5t-27 -64.5t27 -64.5t65 -26.5t64.5 26.5t26.5 64.5t-26.5 64.5t-64.5 26.5zM813 475q-38 0 -65 -26.5t-27 -64.5t27 -64.5t65 -26.5
t64.5 26.5t26.5 64.5t-26.5 64.5t-64.5 26.5z" />
    <glyph glyph-name="uniE64E" unicode="&#xe64e;" 
d="M902 430q-37 0 -67.5 -22t-42.5 -57h-90q3 17 3 33q0 53 -27 98t-73 69l34 113q14 -3 28 -3q49 0 83.5 34.5t34.5 83t-34.5 83t-83.5 34.5t-83 -34.5t-34 -83.5q0 -36 20 -65.5t53 -43.5l-34 -110q-34 14 -73 14q-74 0 -128 -49l-175 175l-2 -2q32 34 32 81
q0 49 -34 83.5t-83 34.5t-83.5 -34.5t-34.5 -83.5t34.5 -83t83.5 -34q47 0 81 32l-6 -6l175 -175q-50 -54 -50 -128q0 -64 39 -115l-150 -121q-36 47 -94 47q-48 0 -82.5 -34.5t-34.5 -83.5t34.5 -83.5t83 -34.5t83 34.5t34.5 83.5q0 30 -15 57l152 122q56 -62 140 -62
q41 0 78 18l53 -120q-27 -16 -43 -43t-16 -59q0 -49 34.5 -83.5t83 -34.5t83 34.5t34.5 83t-34.5 83t-83.5 34.5q-21 0 -42 -8l-53 121q68 39 89 114h88q-2 -10 -2 -22q0 -48 34.5 -82.5t83 -34.5t83 34t34.5 83t-34.5 83.5t-83.5 34.5zM902 430zM188 708l282 -282zM647 708
l-80 -251zM824 338l-247 12zM664 63l-87 200zM398 283l-210 -169z" />
    <glyph glyph-name="uniE64F" unicode="&#xe64f;" 
d="M882 839h-86v-114h-568v114h-86q-35 0 -60 -25t-25 -60v-797q0 -35 25 -60t60 -25h740q35 0 60 25t25 60v797q0 35 -25 60t-60 25zM228 327h455v-57h-455v57zM796 100h-568v56h568v-56zM796 441h-568v57h568v-57zM313 782h398q12 0 20.5 8.5t8.5 20.5v57q0 11 -8.5 19.5
t-20.5 8.5h-398q-12 0 -20.5 -8.5t-8.5 -19.5v-57q0 -12 8.5 -20.5t20.5 -8.5z" />
    <glyph glyph-name="uniE650" unicode="&#xe650;" 
d="M917 7h-812q-18 0 -30 12.5t-12 29.5v672q0 18 12 30t29.5 12t30 -12t12.5 -30v-532v-98h770q17 0 29.5 -12t12.5 -29.5t-12.5 -30t-29.5 -12.5zM819 133h-84q-18 0 -30 12.5t-12 29.5v294q0 18 12 30t30 12h84q17 0 29.5 -12t12.5 -30v-294q0 -17 -12.5 -29.5
t-29.5 -12.5zM581 133h-84q-18 0 -30 12.5t-12 29.5v462q0 18 12 30t30 12h84q17 0 29.5 -12t12.5 -30v-462q0 -17 -12.5 -29.5t-29.5 -12.5zM343 133h-84q-18 0 -30 12.5t-12 29.5v84q0 18 12 30t30 12h84q17 0 29.5 -12t12.5 -30v-84q0 -17 -12.5 -29.5t-29.5 -12.5z" />
    <glyph glyph-name="uniE651" unicode="&#xe651;" 
d="M333 438h-158l238 -238l238 238h-154q2 80 -19.5 141.5t-59 95.5t-87.5 49.5t-104 9t-109 -32t-101 -68.5q33 18 68 28.5t71.5 13.5t68.5 -9.5t57 -38t38.5 -74t12.5 -115.5v0zM913 768h-513q39 -21 70 -53q53 -54 76 -135h361v-572h-774v572h103q-3 4 -5 6
q-23 24 -65 24q-48 0 -103 -27v-587q0 -26 18.5 -44.5t44.5 -18.5h787q26 0 44.5 18.5t18.5 44.5v708q0 26 -18.5 45t-44.5 19v0zM913 768z" />
    <glyph glyph-name="uniE652" unicode="&#xe652;" 
d="M390 579q0 30 -21 51.5t-51.5 21.5t-52 -21.5t-21.5 -52t21.5 -51.5t52 -21t51.5 21t21 52zM390 579zM634 205h60v60q0 33 18 60t47 41l-10 34v3l-66 200l-231 -298l-62 105l-246 -248h362h41q33 43 87 43zM1024 732q0 68 -48 116t-116 48h-696q-68 0 -116 -48t-48 -116
v-696q0 -68 48 -116t116 -48h491h1q12 0 21 9t9 21.5t-9 21.5t-21 9h-1h-491q-43 0 -73 30t-30 73v696q0 43 30 73t73 30h696q43 0 73 -30t30 -73v-488q0 -1 -1 -1q0 -13 9 -22t22 -9t22 9t9 22v0v489zM992 125h-156v157q0 13 -9 22t-22 9t-22 -9t-9 -22v-157h-157
q-12 0 -21 -9t-9 -21.5t9 -21.5t21 -9h157v-157q0 -12 9 -21t22 -9t22 9t9 21v157h156q13 0 22 9t9 21.5t-9 21.5t-22 9z" />
    <glyph glyph-name="uniE653" unicode="&#xe653;" 
d="M513.5 832q-91.5 0 -175 -35.5t-143.5 -95.5t-95.5 -143t-35.5 -174t35.5 -174t95.5 -143t143.5 -95.5t175 -35.5t174 35.5t142.5 95.5t95 143t35 174t-35 174t-95 143t-142.5 95.5t-174 35.5zM792 172q-1 -2 -14 6t-25 17l-12 8l-20 -28q3 -2 7.5 -5.5t14 -11t15 -14
t3.5 -8.5q-96 -95 -232 -101q-2 0 -2 17t1 34v17h-31l-2 -68q-111 6 -198 74q-17 13 -32 28q-2 2 7 12t19 19l10 9l-24 27q-29 -21 -44 -31q-66 86 -70 195q0 1 7 1h16q10 0 19.5 -0.5t17 -1t6.5 -0.5l1 33q-38 0 -67 -1q2 52 21.5 105t49.5 94q1 2 11 -7.5t19 -18.5l10 -10
l26 35q-31 25 -36 31q48 49 112.5 76.5t136.5 27.5q71 0 136 -27t113 -75l-43 -36l24 -29l47 32q67 -86 73 -196h-13q-9 0 -18.5 -0.5t-18.5 -0.5h-14h-6l1 -33q17 1 34.5 1.5t34.5 -1.5q-5 -109 -71 -195zM511 700l-76 -284q-1 -2 -2 -6.5t-2.5 -16.5t-1.5 -23t4.5 -24.5
t12.5 -23.5t24 -16.5t39 -6.5h3q3 0 10.5 1.5t14 3.5t15.5 6t16 9.5t13 14.5t8.5 20t1.5 27t-6 34z" />
    <glyph glyph-name="uniE654" unicode="&#xe654;" 
d="M512 865q-98 0 -187 -38.5t-153 -102.5t-102.5 -153t-38.5 -187t38.5 -187t102.5 -153t153 -102.5t187 -38.5t187 38.5t153 102.5t102.5 153t38.5 187t-38.5 187t-102.5 153t-153 102.5t-187 38.5zM243 115l59 157l93 -92zM419 193l-100 105l280 276l97 -100zM776 551
l-56 -58l-101 101l49 50l8 5q4 3 17.5 3.5t27 -9t27 -22t20.5 -20.5l8 -7q13 -29 0 -43z" />
    <glyph glyph-name="uniE655" unicode="&#xe655;" 
d="M878 226zM512 832q-97 0 -179.5 -47t-130.5 -128.5t-48 -176.5q0 -53 34.5 -127.5t77.5 -136.5t99.5 -130.5t81.5 -95.5t41 -44q10 -10 24 -10h1q14 0 24 11l111 125q222 268 222 408q0 95 -48 176.5t-130.5 128.5t-179.5 47zM512 320q-68 0 -115.5 47t-47.5 113
t47.5 113t115.5 47t115.5 -47t47.5 -113t-47.5 -113t-115.5 -47zM512 320z" />
    <glyph glyph-name="uniE656" unicode="&#xe656;" horiz-adv-x="1025" 
d="M960.5 512q-13.5 0 -23 9.5t-9.5 22.5v81q0 33 -23.5 56.5t-56.5 23.5h-672q-35 0 -57.5 -16.5t-22.5 -47.5q0 -14 -9 -23t-22.5 -9t-23 9t-9.5 23q0 58 41.5 93t102.5 35h672q60 0 102 -42t42 -102v-81q0 -13 -9 -22.5t-22.5 -9.5zM968 448h-242q-7 0 -36.5 32
t-60.5 64.5t-42 32.5h-435q-49 0 -84.5 -35.5t-35.5 -85.5v-336q0 -49 35.5 -84.5t84.5 -35.5h720q50 0 85 35.5t35 84.5v292q0 13 -6.5 24.5t-17.5 11.5zM448 384h-192q-13 0 -22.5 9.5t-9.5 23t9.5 22.5t22.5 9h192q14 0 23 -9t9 -22.5t-9 -23t-23 -9.5z" />
    <glyph glyph-name="uniE657" unicode="&#xe657;" 
d="M512.5 811q-115.5 0 -214 -57.5t-156 -156t-57.5 -214t57.5 -214t156 -155.5t214 -57t214 57t155.5 155.5t57 214t-57 214t-155.5 156t-214 57.5zM512.5 42q-92.5 0 -171.5 46t-124.5 124.5t-45.5 171t45.5 171.5t124.5 124.5t171.5 45.5t171 -45.5t124.5 -124.5
t46 -171.5t-46 -171t-124.5 -124.5t-171 -46z" />
    <glyph glyph-name="uniE658" unicode="&#xe658;" 
d="M422 723l-1 1v1l-1 1l-1 1l-1 1l-1 1l-1 1l-1 1l-1 1l-1 1h-1l-1 1l-1 1l-1 1l-1 1l-1 1l-1 1l-1 1l-1 1l-1 1l-1 1l-1 1l-1 1v1l-1 1l-1 1l-1 1l-1 1l-1 1l-1 1l-1 1l-1 1l-1 1l-1 1l-1 1l-1 1l-2 2l-1 1l-2 1l-1 2l-1 1l-2 2l-1 1l-2 1l-1 2l-2 1l-1 2l-2 1l-1 2l-1 1
l-2 1l-1 2l-2 1l-1 2l-2 1l-1 2l-2 1l-1 2l-2 1l-1 2l-2 2l-1 1l-2 2l-2 1l-1 2l-2 1l-1 2l-2 1l-1 2l-2 1l-1 2l-2 2l-2 1l-1 2l-2 1l-1 2l-2 2l-2 1l-1 2l-2 1l-1 2l-2 1l-1 2l-2 2l-2 1l-1 2l-2 1l-1 2l-2 1l-1 2l-1 1l-2 1l-1 2l-1 1q-19 15 -45 13.5t-45 -20.5t-19 -51
q3 -71 4.5 -192.5t1.5 -207.5v-86q327 0 487 -7q32 0 51 20q19 18 20 43.5t-14 39.5v0l-1 1v0l-1 1v1h-1l-1 1l-1 1l-1 1v1h-1v1h-1l-1 1v1h-1l-1 1v1h-1l-1 1v1h-1l-1 1l-1 1v1h-1l-1 1l-1 1v1h-1l-1 1l-1 1l-1 1v1h-1l-1 1l-1 1l-1 1l-1 1l-1 1v1l-1 1h-1l-1 1l-1 1l-1 1
l-1 1l-1 1l-1 1l-1 1v1l-1 1l-1 1h-1l-1 1l-1 1l-1 1l-1 1l-1 1l-1 1l-1 1l-1 1l-1 1l-1 1l-1 1l-1 1l-1 1l-1 1l-1 1l-1 1l-1 1l-1 1l-1 1l-1 1l-1 1l-1 1l-1 1l-1 1l-1 1l-1 1l-1 1l-1 2l-1 1l-1 1l-2 1l-1 1l-1 1l-1 1l-1 1l-1 1l-1 1l-1 1l-1 1l-1 1l-1 1l-1 1l-1 1
l-1 1l-1 1l-1 1l-1 2l-1 1l-1 1l-1 1l-2 1l-1 1l-1 1l-1 1l-1 1l-1 1l-1 1l-1 1l-1 1l-1 1l-1 1l-1 1l-1 1l-1 1l-1 1l-1 1l-1 2l-1 1l-1 1l-1 1l-1 1l-1 1l-1 1l-1 1l-1 1l-1 1l-2 1q76 72 175 92.5t228 -8.5l-19 19q-47 47 -99.5 85.5t-116 67t-124.5 36.5t-125 -12.5
t-118 -74.5zM58 -13h793q24 0 41 17t17 41v486q-67 13 -115 -19v-83q3 -2 8 -7.5t12.5 -28.5t4.5 -54q0 -23 -6.5 -45t-12.5 -33l-6 -11v-160h-679v806h-57q-24 0 -41 -17t-17 -41v-793q0 -24 17 -41t41 -17z" />
    <glyph glyph-name="uniE659" unicode="&#xe659;" 
d="M704 525h-51v51v256h-467q-53 0 -87.5 -34.5t-34.5 -87.5v-659q0 -49 35 -85t87 -36h659q49 0 85 34.5t36 86.5v474h-262zM205 621h352v-96h-352v96zM819 147h-614v96h614v-96zM819 339h-614v90h614v-90zM704 576h256v134q0 50 -35 86t-87 36h-134v-256z" />
    <glyph glyph-name="uniE65A" unicode="&#xe65a;" horiz-adv-x="1301" 
d="M650 124l81 81l-113 114l-82 -81v-41h74v-73h40zM967 652q-12 12 -24 0l-252 -260q-12 -12 0 -24t24 0l252 252q11 21 0 32zM1024 221v-138q0 -81 -65 -146t-146 -65h-602q-81 0 -146 65q-65 52 -65 146v602q0 81 65 146t146 65h602q32 0 81 -16q4 0 6 -2t4.5 -6.5
t5.5 -8.5q0 -16 -8 -24l-32 -32q-9 -9 -25 -9q-4 0 -16 4.5t-16 4.5h-602q-48 0 -80.5 -32.5t-32.5 -81.5v-610q0 -48 32.5 -80.5t80.5 -32.5h602q48 0 80.5 32.5t32.5 80.5v90q0 6 1.5 8t7.5 8l48 49q8 8 25 8q5 0 10.5 -9t5.5 -16zM959 758l211 -211l-487 -488h-220v211z
M1276 660l-65 -65l-211 212l65 65q24 24 48.5 24t48.5 -24l114 -114q24 -25 24 -49t-24 -49zM1276 660z" />
    <glyph glyph-name="uniE65B" unicode="&#xe65b;" 
d="M1024 247v-34q0 -4 -4.5 -17t-4.5 -17q-3 -6 -5.5 -13.5t-5 -12t-6.5 -8.5q-9 -10 -20 -16t-14 -10q-8 -8 -25 -8t-26 8q-17 0 -26 9h-34q-25 0 -34 -9q-8 0 -25 -17q-26 -38 -26 -68q0 -43 9 -68q6 -13 6 -21.5t-6 -21.5l-18 -17q-3 -4 -7.5 -6t-12 -5t-14.5 -6
q-8 -8 -34 -8q-17 -9 -42 -9q-18 0 -18 9q-6 6 -7 8t-1 9q-9 25 -43 59q-25 26 -68 26t-68 -26q-34 -34 -43 -59q0 -7 -5.5 -12t-11.5 -5q-9 -9 -26 -9q-25 0 -34 9q-8 0 -13.5 1.5t-15.5 7.5t-13 8q-7 3 -14.5 5.5t-12 5t-8.5 6.5l-25 25q0 5 -4.5 9t-4.5 8q0 17 9 26
q8 17 8 60q0 34 -25 59q0 6 -9.5 11.5t-16.5 5.5q-9 0 -24 4.5t-18 4.5q-35 0 -52 -9h-34l-17 18q-4 4 -8.5 16.5t-8.5 17.5q-4 8 -8.5 21t-8.5 21v34q0 22 26 35q25 0 59 34q26 38 26 68q0 43 -25.5 68.5t-59.5 42.5q-4 0 -6.5 2t-5 7t-5.5 8q-9 9 -9 26t9 34q0 4 4 17
t4 17q4 4 6 8.5t5 12t6 13.5q4 0 6 2t5 7t6 8q4 0 8.5 4.5t8.5 4.5q7 0 9 -1.5t8 -7.5q52 -17 69 -8q12 0 23.5 5.5t18 11t17.5 17.5q17 17 17 34q0 9 4.5 20t4.5 14v34v26v17v17q8 0 26 17q6 6 16.5 11.5t17.5 5.5q8 4 21 8.5t21 8.5h26q17 0 26 -9q6 -6 7 -8t1 -9
q12 -35 43 -51q25 -25 68 -25t68 25q34 17 34 51q0 4 2.5 6.5t7 5t7.5 5.5q4 4 8.5 6.5t6.5 2.5h3q25 0 34 -9q4 0 17 -4t17 -4q4 -4 17 -8.5t17 -8.5l26 -26q0 -3 1.5 -6t1.5 -5t-3 -6q0 -6 -1.5 -8t-7.5 -9q0 -9 -2 -22t-2 -24t4 -22q0 -12 5.5 -23.5t11.5 -18t17.5 -18
t18 -17.5t18 -11.5t23.5 -5.5q51 0 68 9q4 0 12.5 4t13.5 4q17 0 25.5 -8.5t25.5 -42.5q2 -5 6 -17.5t6 -17.5t3.5 -14.5t1.5 -18.5q0 -26 -9 -26l-17 -17q-25 -9 -59 -43q-26 -25 -26 -68q0 -9 2 -18.5t3.5 -15t6 -17.5t5.5 -17q34 -34 51 -43q5 0 9 -4t8 -4q8 0 12 -2
t8 -8t6 -8zM512 145q43 0 94 17l77 51q38 39 51 77q1 6 4.5 19.5t5 19.5t3.5 16.5t3 19.5t1 19t-1 19t-3 19.5t-3.5 16.5t-5 19.5t-4.5 19.5q-26 51 -51 77q-39 38 -77 51q-6 1 -19.5 4.5t-19.5 5t-16.5 3.5t-19.5 3t-19 1t-19 -1t-19.5 -3t-16.5 -3.5t-19.5 -5t-19.5 -4.5
q-38 -13 -77 -51q-25 -26 -51 -77q-17 -51 -17 -94q0 -10 1 -19t3 -19.5t3.5 -16.5t5 -19.5t4.5 -19.5l51 -77q16 -16 24.5 -23.5t22.5 -15.5t30 -12q51 -17 94 -17zM512 145z" />
    <glyph glyph-name="uniE65C" unicode="&#xe65c;" 
d="M396 288l116 -88l409 328h-1l1 1l-293 192l-39 30l-77 58l-77 -58l-39 -30l-293 -192l1 -1h-1zM67 491q-3 -8 -3 -15v-467q0 -8 3 -16l292 263zM512 140l-114 87l-295 -266q8 -2 15 -2h788q7 0 15 2l-295 266zM957 491l-292 -235l292 -263q3 8 3 16v467q0 7 -3 15z
M396 288l116 -88l409 328h-1l1 1l-293 192l-39 30l-77 58l-77 -58l-39 -30l-293 -192l1 -1h-1zM67 491q-3 -8 -3 -15v-467q0 -8 3 -16l292 263zM512 140l-114 87l-295 -266q8 -2 15 -2h788q7 0 15 2l-295 266zM957 491l-292 -235l292 -263q3 8 3 16v467q0 7 -3 15z" />
    <glyph glyph-name="uniE65D" unicode="&#xe65d;" 
d="M520 -79h-366q-30 0 -48 18t-18 47v42v46q-4 58 24 123q38 88 123 223q11 17 19 29q19 28 53 28q3 0 9.5 -1t10.5 -0.5t6.5 2.5t2.5 6.5t-0.5 10.5t-0.5 9v42q0 39 37 50q33 11 61 -5q26 -14 26 -42q-1 -11 -1 -31v-32q0 -6 2 -8t7 -2q53 1 106 0q6 0 7.5 2t1.5 8v59
q0 40 38 51q35 11 65 -8q21 -14 21 -38q-1 -12 -1 -34v-33q0 -7 7 -7q3 1 23 1q32 -1 50 -25q101 -143 146 -254q24 -61 22 -117q1 -2 0.5 -47t-0.5 -48q0 -29 -18.5 -47t-46.5 -18h-368zM306 826q-140 -32 -247 -142q-34 -34 -33 -82v-59q0 -31 18 -48.5t48 -17.5h56h56
q33 -1 51 17t18 50q0 41 22 76q36 59 106 84q56 20 147 17q70 -3 116 -27q105 -54 105 -159q0 -24 18.5 -41t43.5 -17q52 -1 120 0q28 0 45.5 17t17.5 45v31v30q2 51 -35 87q-104 103 -230 135q-97 25 -229 25q-121 0 -214 -21zM523 353q-78 1 -133 -53t-55 -132
q0 -76 54 -130.5t130 -54.5q77 -1 131.5 53t54.5 131q1 76 -53 131t-129 55zM397 168q0 -51 36 -87.5t87 -36.5q52 0 88 36.5t36 88.5q0 50 -36.5 86t-86.5 36q-52 0 -88 -36t-36 -87z" />
    <glyph glyph-name="uniE65E" unicode="&#xe65e;" 
d="M725 775q-73 0 -119.5 -26.5t-93.5 -80.5q-47 54 -93.5 80.5t-119.5 26.5q-43 0 -79.5 -15t-67.5 -46.5t-49 -89t-18 -133.5q0 -34 13.5 -76t45.5 -95t79 -106t122 -111.5t167 -109.5q92 51 167 109.5t122 111.5t79 106t45.5 95t13.5 76q0 76 -18 133.5t-49 89
t-67.5 46.5t-79.5 15z" />
    <glyph glyph-name="uniE65F" unicode="&#xe65f;" 
d="M74 -116q-15 0 -25.5 10.5t-10.5 25.5v927q0 15 10.5 25t25.5 10h873q14 0 24.5 -10t10.5 -25v-483v-2q-1 -13 -11.5 -23t-24.5 -10q-12 0 -21.5 7.5t-12.5 19.5h-1v10v436q0 7 -1.5 8.5t-7.5 1.5h-783q-7 0 -8.5 -1.5t-1.5 -8.5v-838q0 -6 1.5 -7.5t8.5 -1.5h522v-7
q15 -10 15 -28q0 -19 -16 -30v-6h-566zM746 -63q-14 0 -25 14l-100 134q-15 24 5 39q8 6 17 6q12 0 22 -10l83 -66l215 198q10 9 21 9q9 0 16 -6q16 -13 0 -36l-230 -269q-10 -13 -24 -13zM234.5 157q-19.5 0 -33.5 14t-14 34t14 33.5t33.5 13.5t33.5 -13.5t14 -33.5
t-14 -34t-33.5 -14zM349 171q-15 0 -25 10t-10 25t10 25t25 10h273q14 0 24.5 -10t10.5 -25t-10.5 -25t-24.5 -10h-273zM234.5 352q-19.5 0 -33.5 13.5t-14 33.5t14 33.5t33.5 13.5t33.5 -13.5t14 -33.5t-14 -33.5t-33.5 -13.5zM349 366q-15 0 -25 10t-10 24.5t10 25
t25 10.5h409q15 0 25 -10.5t10 -25t-10 -24.5t-25 -10h-409zM229.5 548q-19.5 0 -33.5 14t-14 33.5t14 33.5t33.5 14t33.5 -14t14 -33.5t-14 -33.5t-33.5 -14zM349 560q-15 0 -25 10.5t-10 25t10 25t25 10.5h461q14 0 24.5 -10.5t10.5 -25t-10.5 -25t-24.5 -10.5h-461z" />
    <glyph glyph-name="uniE660" unicode="&#xe660;" 
d="M823 450h-68v159q0 101 -71.5 172t-171.5 71t-171.5 -71t-71.5 -172v-159h-68q-25 0 -42.5 -18t-17.5 -42v-438q0 -25 17.5 -42.5t42.5 -17.5h622q25 0 42.5 17.5t17.5 42.5v438q0 24 -17.5 42t-42.5 18zM546 159v-95q0 -8 -8 -8h-52q-8 0 -8 8v95q-18 10 -29.5 27.5
t-11.5 39.5q0 31 22 52.5t53 21.5t53 -21.5t22 -52.5q0 -22 -11.5 -39.5t-29.5 -27.5zM662 450h-299v155q0 62 43.5 106t105.5 44t106 -44t44 -106v-155z" />
    <glyph glyph-name="uniE661" unicode="&#xe661;" 
d="M883 479v209q0 26 -18 44.5t-44 18.5h-496q-25 0 -43.5 -18.5t-18.5 -44.5v-609q0 -26 18.5 -44.5t43.5 -18.5h82q36 -79 105 -131h-188q-78 0 -133 55t-55 133h-67q-24 0 -41.5 17.5t-17.5 42t17.5 42t41.5 17.5h67v133h-67q-25 0 -42 17t-17 41.5t17.5 42t41.5 17.5h67
v133h-67q-25 0 -42 17t-17 41.5t17.5 42t41.5 17.5h67q0 78 55 133t133 55h499q77 0 132 -55t55 -133v-325q-50 71 -127 110zM318 251v61h88q-14 -30 -21 -61h-67zM318 437h183q-31 -26 -57 -61h-126v61zM318 688h510v-61h-510v61zM828 502h-510v60h510v-60zM724 447
q116 0 198.5 -82.5t82.5 -199.5t-82.5 -200t-198.5 -83t-198.5 83t-82.5 200t82.5 199.5t198.5 82.5zM724 -37q83 0 141.5 59t58.5 142.5t-58.5 142.5t-141.5 59t-141.5 -59t-58.5 -142.5t58.5 -142.5t141.5 -59zM716.5 307q11.5 0 19.5 -8t8 -20v-98h98q11 0 19 -8t8 -19.5
t-8 -19.5t-19 -8h-125q-12 0 -20 8t-8 19v126q0 12 8 20t19.5 8z" />
    <glyph glyph-name="uniE662" unicode="&#xe662;" 
d="M512 832q-91 0 -174 -35.5t-143 -95.5t-95.5 -143t-35.5 -174t35.5 -174t95.5 -143t143 -95.5t174 -35.5t174 35.5t143 95.5t95.5 143t35.5 174t-35.5 174t-95.5 143t-143 95.5t-174 35.5zM512 10q-101 0 -187 50.5t-136.5 136.5t-50.5 187t50.5 187t136.5 136.5
t187 50.5t187 -50.5t136.5 -136.5t50.5 -187t-50.5 -187t-136.5 -136.5t-187 -50.5z" />
    <glyph glyph-name="uniE663" unicode="&#xe663;" 
d="M761 300q17 25 30 45h97v-45h-127zM757 345h-115l-76 236l-77 -236h-5l-54 166l-54 -166h-115q-16 25 -30 46q-38 50 -38 112q0 75 52.5 128t127.5 53q82 0 136 -62q54 62 136 62q75 0 128 -53t53 -128q0 -62 -39 -112q-14 -21 -30 -46zM257 300h-118v45h88
q13 -20 30 -45zM409 300l21 65l56 -174l80 243l43 -134h117q-35 -52 -89 -113.5t-91 -99t-37 -36.5q-16 15 -41 40.5t-83 91t-93 117.5h117z" />
    <glyph glyph-name="uniE664" unicode="&#xe664;" horiz-adv-x="1098" 
d="M785 -128v315h312v-315h-312zM1024 109h-165v-153h165v153zM905 343h-309v-79h-83v79h-313v-79h-83v163h70h13h313v154h-201v315h473v-315h-189v-154h309h73h10v-163h-83v79zM707 666v152h-312v-152h312zM312 -128h-312v315h312v-315zM238 109h-164v-153h164v153z
M707 -128h-312v315h312v-315zM633 109h-165v-153h165v153z" />
    <glyph glyph-name="uniE665" unicode="&#xe665;" 
d="M427 147q20 -21 28 -29t22.5 -19t18.5 -13.5t16.5 -3t16.5 2.5t18.5 13.5t22.5 19t29 29.5l259 259q23 23 26.5 35.5t-7.5 17t-38 4.5h-130v315q0 49 -34.5 83.5t-83.5 34.5h-158q-49 0 -83.5 -34.5t-34.5 -83.5v-315h-128q-44 0 -48.5 -11t29.5 -46zM945 148v-158
q0 -16 -11.5 -27.5t-27.5 -11.5h-788q-16 0 -27.5 11.5t-11.5 27.5v158h-79v-158q0 -49 34.5 -83.5t83.5 -34.5h788q49 0 83.5 34.5t34.5 83.5v158h-79z" />
    <glyph glyph-name="uniE666" unicode="&#xe666;" horiz-adv-x="1481" 
d="M0 609q0 44 15 64q14 18 64 18h205v-819h-88q-39 0 -70 1q-46 1 -47 1q-43 -2 -61 14.5t-18 62.5v236q0 18 5.5 27t23.5 12q6 0 18 5q11 5 22 16q12 11 19 27q8 18 8 42q0 38 -20 59q-20 22 -42 25q-18 3 -26 10.5t-8 25.5v173v0zM133 765v20v1v2v20q0 32 25 60t54 28
h222v-131h-301v0zM1442 409q-13 -3 -18 -14q-6 -11 -6 -23t6 -25q5 -13 18 -18t20 -19q8 -15 8 -32q1 -16 -4 -31q-5 -14 -14 -21q-32 -20 -32 -44q0 -25 32 -49q6 -5 12 -18q6 -14 6 -27t-7 -22q-6 -10 -22 -10h-87q-10 0 -10 1q-1 2 2 6t8 9q4 5 8 12q8 23 0 39
q-8 17 -27 28q-14 7 -19 20q-5 14 -4 29q0 15 5 26q5 12 14 17q13 5 20 18q6 12 6 27q0 14 -4 28q-5 12 -15 17q-13 7 -20 19q-7 13 -7 30t6 32q7 16 21 25q10 6 16 18q6 10 7 24q1 12 -5 26q-5 12 -20 20q-16 9 -23 24q-7 16 -7 32t7 31t20 23q28 15 30 40q2 26 -4 47
q-5 17 -19 30q-15 13 -37 13h-771v129h904q11 0 19 -8q8 -9 10.5 -20t-1.5 -24q-4 -12 -15 -20q-10 -9 -17 -21t-8 -28q-1 -13 4 -27q4 -14 17 -21q18 -10 27 -27t9 -34t-9 -32t-25 -21q-18 -7 -26 -19q-7 -12 -9 -27q0 -15 7 -29t23 -24q16 -9 24 -26q6 -16 6 -33
q-1 -16 -8 -30q-8 -14 -22 -16v0zM1233 434q-18 -5 -29 -19q-10 -14 -12 -29q0 -14 8 -29q10 -15 27 -21q16 -7 24 -20t9 -28q1 -14 -5.5 -27.5t-19.5 -19.5q-40 -20 -41 -48q-2 -27 30 -44q15 -7 23 -21q9 -13 10 -29t-6 -28q-6 -12 -21 -17q-19 -5 -30 -18
q-10 -13 -11 -28t8 -30q9 -14 28 -24q13 -7 19 -21t4 -27t-9 -23q-7 -11 -20 -11h-840v819h850q13 0 20 -10q7 -11 8 -24t-6 -26q-6 -14 -21 -18q-14 -5 -23 -17q-9 -11 -11 -25q-1 -14 7 -27t27 -20q15 -7 24 -19q9 -15 9 -27q1 -14 -6 -27q-7 -12 -24 -17v0zM846 324
q-8 0 -17 2q-8 2 -4 10q12 17 16 23q15 21 30 41q4 5 15 20t17 22q15 22 17 25q8 13 -9 31q-3 3 -13 10q-9 6 -18 10q-13 4 -18 1q-6 -4 -14 -15q-11 -16 -16 -23t-27 -40q-12 -18 -27 -39q-12 -17 -13 -20q-4 -7 -12.5 -5.5t-11.5 8.5q-4 5 -15 19q-14 17 -27 35
q-9 12 -28 37q-13 16 -19 24q-14 27 -30 18q-11 -7 -21 -14q-8 -7 -16 -13q-16 -11 -5 -29q29 -35 48 -61q24 -30 34 -44q15 -20 19 -25q3 -6 -7 -6h-19q-9 0 -23 -1q-16 -1 -28 1q-13 0 -21 -7q-8 -6 -5 -16q2 -7 2 -20v-20q0 -8 5 -8q4 -1 11 -1h93q19 0 19 -8v-31
q0 -9 -3 -9h-8h-16h-32h-32h-20q-9 2 -12 -4q-3 -7 -5 -15q-2 -9 0 -16q1 -6 1 -12q0 -22 21 -22h97q8 0 9 -2q2 -3 2 -11q2 -9 1 -29q-1 -26 -1 -28q0 -18 21 -18h51q13 0 13 8v12v54q0 16 14 16h15q14 0 25 1q19 1 26 1h21q23 0 23 16v36q0 15 -16 15h-94q-16 -3 -16 7v12
q-1 6 -1 14q0 6 5 9q6 4 12 4h95q16 0 16 11v40q0 6 -5 13q-6 6 -14 6h-55v0zM846 324z" />
    <glyph glyph-name="uniE667" unicode="&#xe667;" horiz-adv-x="1029" 
d="M1019 545l-62 52q-22 19 -36 3l-347 -367l-80 -93l104 -91l37 44q40 45 40 46l3 2l3 3l339 367q17 19 -1 34zM455 99q-71 -129 -85 -177q-5 -18 0 -21.5t23 3.5q24 8 65.5 34.5t69.5 48.5l29 23zM767 511l49 56v236q0 47 -47 47h-642q-49 0 -49 -45v-834q0 -45 49 -45
h205l95 218zM205 760h484q14 0 24.5 -10t10.5 -24t-10.5 -24t-24.5 -10h-484q-14 0 -24.5 10t-10.5 24t10.5 24t24.5 10zM205 602h484q14 0 24.5 -10t10.5 -24t-10.5 -24t-24.5 -10h-484q-14 0 -24.5 10t-10.5 24t10.5 24t24.5 10zM205 376q-14 0 -24.5 10t-10.5 24t10.5 24
t24.5 10h300q14 0 24 -10t10 -24t-10 -24t-24 -10h-300zM541 -74h113l42 -1l73 1q23 0 35 14.5t12 38.5v143v106l-212 -239q-55 -58 -63 -63zM541 -74z" />
    <glyph glyph-name="uniE668" unicode="&#xe668;" horiz-adv-x="1174" 
d="M769 436v-434q0 -31 -22.5 -53.5t-53.5 -22.5h-460q-32 0 -54 22.5t-22 53.5v613q0 32 22 54.5t54 22.5h281v51h-306q-43 0 -72.5 -30t-29.5 -72v-664q0 -42 29.5 -72t72.5 -30h510q43 0 72.5 30t29.5 72v459h-51zM642 488q-32 0 -54.5 22t-22.5 54v179h-51v-204
q0 -43 30 -73t72 -30h204v52h-178zM565 743l-18 -54l255 -256l18 18v36zM361 794v-51h51v25q0 32 22.5 54.5t53.5 22.5h281v51h-306q-42 0 -72 -30t-30 -72zM1025 590v-434q0 -32 -22.5 -54.5t-54.5 -22.5h-128v-51h154q42 0 72 30t30 72v460h-51zM897 641q-32 0 -54.5 22.5
t-22.5 53.5v179h-51v-204q0 -43 30 -72.5t72 -29.5h205v51h-179zM820 896l-18 -54l256 -255l18 18v36zM488 436h-280v-51h280v51zM488 309h-280v-51h280v51zM208 181v-51h408v51h-408zM208 2h408v52h-408v-52z" />
    <glyph glyph-name="uniE669" unicode="&#xe669;" 
d="M512 831q-91 0 -173.5 -35.5t-142.5 -95.5t-95.5 -142.5t-35.5 -173.5t35.5 -173.5t95.5 -142.5t142.5 -95.5t173.5 -35.5t173.5 35.5t142.5 95.5t95.5 142.5t35.5 173.5t-35.5 173.5t-95.5 142.5t-142.5 95.5t-173.5 35.5zM512 49q-91 0 -168 45t-122 122t-45 168
t45 168t122 122t168 45t168 -45t122 -122t45 -168t-45 -168t-122 -122t-168 -45zM706 657l-467 -467q33 -46 79 -79l467 467q-33 46 -79 79z" />
    <glyph glyph-name="uniE66A" unicode="&#xe66a;" 
d="M112 832h32v-864h768v-32h-800v896zM400 448v-416h-192v224zM656 416v-384h-192v416l96 -128zM912 608v-576h-192v416zM240 384l-32 32l224 224l128 -128l256 224l-64 64h160v-160l-64 64l-288 -256l-128 128z" />
    <glyph glyph-name="uniE66B" unicode="&#xe66b;" horiz-adv-x="1104" 
d="M961 -125h-820q-41 0 -73 15.5t-48 44.5q-35 59 7 135l414 747q20 36 49 56t61 20t61 -20t49 -56l414 -747q42 -76 8 -135q-17 -29 -48.5 -44.5t-73.5 -15.5v0zM551 815q-22 0 -42 -37l-414 -746q-20 -37 -8 -58t54 -21h820q42 0 54.5 21t-8.5 58l-414 746q-20 37 -42 37
v0zM551 229q-16 0 -27.5 11t-11.5 28v352q0 17 11.5 28t27.5 11t27.5 -11t11.5 -28v-352q0 -17 -11.5 -28t-27.5 -11zM551 37q25 0 43 18t18 43t-18 43t-43 18t-43 -18t-18 -43t18 -43t43 -18z" />
    <glyph glyph-name="uniE66C" unicode="&#xe66c;" 
d="M933 629q-33 53 -76 97q-45 44 -99 76l60 60q10 0 25.5 -1t50.5 -12t54.5 -30.5t30.5 -52t12 -55.5l1 -23zM397 85h-182v182l22 22q60 -28 107 -75t75 -107zM882 578l-411 -419q-34 56 -79 102q-47 46 -103 79l419 412q58 -27 103 -71.5t71 -102.5zM155 742v-717h717v299
l120 119v-451q0 -36 -25.5 -61.5t-61.5 -25.5h-783q-36 0 -61.5 25.5t-25.5 61.5v783q0 36 25.5 61.5t61.5 25.5h451l-119 -120h-299z" />
    <glyph glyph-name="uniE66D" unicode="&#xe66d;" 
d="M740 441v341h-626v-682h295l-108 -112h-237q-26 0 -45 18.5t-19 45.5v780q0 27 18.5 45.5t45.5 18.5h725q27 0 45.5 -19t18.5 -45v-277zM853 213v-163q0 -26 -18.5 -45t-45.5 -19h-163zM626 327h-398v114h398v-114zM626 668v-113h-398v113h398zM907 521q10 9 23 9t23 -9
l48 -48q9 -10 9 -23t-10 -22l-429 -417q-9 -10 -22.5 -10t-22.5 10l-48 48q-9 9 -9 22t9 23z" />
    <glyph glyph-name="uniE66E" unicode="&#xe66e;" 
d="M981 178v1v1q43 98 43 204q0 55 -12 109q0 2 -1 4q-34 150 -146.5 257.5t-264.5 133.5q-3 1 -4 1q-42 7 -84 7q-181 0 -320.5 -113t-178.5 -286q-1 -2 -1 -4q-12 -54 -12 -109v-22q1 -15 12.5 -25.5t26.5 -9.5q16 0 26.5 11.5t9.5 26.5v19q0 33 5 66h139v-21
q0 -16 10.5 -27t26 -11t26.5 11t11 27q0 4 1 21h181v-59q0 -16 11 -27t26 -11t26 11t11 27v59h181q1 -16 1 -21q0 -97 -24 -184q-4 -15 3.5 -28t22.5 -18q5 -1 10 -1q12 0 22 7.5t14 19.5q26 97 26 204v21h139q5 -33 5 -66q0 -91 -36 -174q-8 -11 -21 -23.5t-40.5 -33.5
t-73 -37t-98.5 -20q-31 -3 -57 -3q-122 0 -221 59l84 89q16 18 6.5 40.5t-34.5 22.5h-337q-16 0 -26.5 -11t-10.5 -26v-337q0 -25 23 -34.5t40 7.5l84 84q31 -26 65.5 -49t95 -44.5t120.5 -21.5q61 0 124.5 16.5t128 50t121 93t91.5 138.5l1 2q2 5 3 6zM445 816q13 2 30 4
v-121q-58 6 -109 31q34 58 79 86zM549 820q17 -2 30 -4q44 -27 79 -86q-52 -25 -109 -31v121zM98 524q42 123 144 204q4 -9 11 -15q2 -1 16 -11q-33 -80 -45 -178h-126zM299 524q10 75 35 139q67 -32 141 -39v-100h-176zM549 524v100q73 6 141 39q25 -64 34 -139h-175z
M800 524q-12 97 -45 177q14 11 15 11q8 7 11 16q103 -81 145 -204h-126zM512 -91v38q-41 0 -82 12.5t-69 28t-54.5 35.5t-35 28.5t-12.5 13.5q-11 12 -27 12h-1q-16 0 -26 -11l-47 -46v210h214l-55 -59q-11 -12 -9.5 -29t15.5 -27q133 -96 300 -96q29 0 63 3q49 4 94 17
q-13 -11 -24 -18q-1 0 -4 -3q-111 -71 -240 -71v-38z" />
    <glyph glyph-name="uniE66F" unicode="&#xe66f;" 
d="M952 332q-1 0 -17 3t-19.5 3.5t-19.5 4t-21.5 5.5t-20 6.5t-21.5 8.5t-18.5 10.5t-18.5 13t-15 15t-14 18.5l-131 227q-69 109 -161 143t-200 -11q10 30 -6 59q-19 33 -56.5 46.5t-68.5 -3.5t-37.5 -58t11.5 -71q17 -30 48 -35q-92 -72 -109 -168.5t44 -210.5h-1
l131 -227q8 -13 12 -27.5t5.5 -26.5t0 -28.5t-3 -26.5t-7 -27.5t-7.5 -24t-8.5 -24t-7.5 -19.5q-1 -16 4.5 -23.5t16 -6.5t20.5 4.5t20 9.5l659 381q14 8 24 17t10.5 22t-17.5 21zM493 -41q34 -42 87.5 -52t101.5 17q47 27 65.5 79t-1.5 102z" />
    <glyph glyph-name="uniE670" unicode="&#xe670;" 
d="M203 346v-363q1 -17 16 -26q11 -7 25 -7h165q8 0 14.5 6.5t6.5 15.5v174h164v-174q0 -9 6.5 -15.5t14.5 -6.5h165q14 0 24 7q16 9 17 26v363l-309 282zM941 446l-144 132v204q0 10 -6.5 16.5t-15.5 6.5h-55q-9 0 -15.5 -6.5t-6.5 -16.5v-114l-147 135q-17 15 -39 15
t-39 -15l-390 -357q-18 -16 -19 -40t15 -42q18 -19 43 -19q23 0 39 16l351 320l351 -320q17 -17 41 -15.5t40.5 19t15.5 41.5t-19 40z" />
    <glyph glyph-name="uniE671" unicode="&#xe671;" 
d="M851 127q-3 52 -27 97.5t-65 76.5v191q0 83 -52 146.5t-131 79.5v5q0 37 -27 64t-65 27t-65 -27t-27 -64v-5q-24 -5 -46 -15l431 -576h74zM458 -57h52q60 0 105 39.5t52 98.5h-365q7 -59 51.5 -98.5t104.5 -39.5zM209 492v-191q-41 -31 -65 -76.5t-26 -97.5h91v-1h525
l-420 560q-48 -32 -76.5 -83t-28.5 -111zM249 832l-28 -22l93 -124q16 10 32 17zM906 -45l-129 172h-18v-1h-25l144 -192z" />
    <glyph glyph-name="uniE672" unicode="&#xe672;" 
d="M383 611q0 62 -43.5 105.5t-105 43.5t-105 -43.5t-43.5 -105.5q0 -59 42 -102q-11 -45 -11 -91q0 -105 50.5 -193.5t135.5 -141.5l30 122q-47 39 -73 94.5t-26 118.5q0 22 3 45q61 1 103.5 44.5t42.5 103.5v0zM510 694q76 0 141 -38q-10 -26 -10 -53q0 -62 43.5 -105.5
t104.5 -43.5t104.5 43.5t43.5 105t-43 105t-105 43.5q-28 0 -54 -11q-102 71 -225 71q-83 0 -159 -34l68 -98q43 15 91 15v0zM787 405q-3 -75 -43 -137t-105 -96q-18 37 -53.5 59t-78.5 22q-61 0 -104.5 -43.5t-43.5 -104.5t43.5 -104.5t104.5 -43.5q46 0 83 25t54 66
q115 41 187.5 142.5t72.5 227.5q0 13 -1 26l-116 -39v0z" />
    <glyph glyph-name="uniE673" unicode="&#xe673;" 
d="M369 647q106 -14 195 21l-27 -31l18 -11l51 39l-14 -28l21 -4l16 44q28 -21 59 -25q6 -63 -14 -118q-24 -70 -70 -106q-35 -28 -74 -30t-74 22q-44 31 -70 94q-23 57 -17 133zM655 324q37 1 80 -7l4 -80h-37h-15l7 -14l32 -53q-43 -54 -96.5 -133.5t-81.5 -133.5l8 -4
q19 36 82.5 123.5t105.5 141.5l4 5l-3 5l-27 45h31h9l-1 9l-4 86q29 -7 74 -19q66 -149 70 -346q-18 -35 -128.5 -56t-238.5 -21.5t-240.5 20t-132.5 57.5q4 197 70 346q53 15 79 20l-4 -87l-1 -9h10h30l-27 -45l-3 -5l4 -5q114 -144 169 -247l7 3q-85 157 -157 250l32 52
l8 14h-16h-37l4 83q39 6 74 5q1 -19 6 -38.5t17 -45.5t18.5 -38.5t25.5 -46.5t23 -40l18 105l-18 27l20 23h35l20 -19l-13 -31l19 -120q5 12 22 48t24 53t18 44.5t16 46t5 32.5zM735 627l4 2l2 1q7 24 8.5 57t-8 66.5t-24 60.5t-39.5 38.5t-54 0.5q-20 19 -46.5 27t-50.5 7
t-51 -2q-90 -5 -134.5 -76.5t-28.5 -173.5l-7 -1q-6 -47 5 -71q8 -16 21 -25q6 -24 14 -42q32 -75 86 -112q46 -33 102 -31q52 2 99 39q57 46 85 127q17 52 17 108z" />
    <glyph glyph-name="uniE674" unicode="&#xe674;" 
d="M839 208q-18 27 -56 42q35 0 64 3q-19 21 -31 39t-18.5 31.5t-10 36t-4.5 38t-2.5 53.5t-3.5 69q-1 97 -32.5 198.5t-70.5 129.5q-64 48 -173.5 45t-173.5 -55q-24 -20 -45.5 -69t-29.5 -108q-5 -48 -12.5 -85.5t-14.5 -63.5t-18 -46.5t-19 -32.5t-23.5 -24t-25 -17
t-29.5 -16q83 -23 147 15q-13 -31 -32 -49t-47 -35q64 -50 142 -36q-8 -2 -27.5 -6t-29.5 -7t-25 -8t-25.5 -11t-17.5 -14q-34 -34 -53 -85t-23 -103t-2.5 -93t8.5 -72h761q4 27 5.5 68t-2 89t-16.5 97t-34 82zM353 573q2 19 3 28q33 -8 68 -11v32l10 -3l3 -13l5 21l11 -1
l18 -40q106 -4 201 15q6 -48 -4 -96q-14 -65 -53.5 -114t-99.5 -67q-57 9 -95.5 50.5t-55.5 99.5q-13 48 -11 99zM510 -82q-124 157 -175 357q48 13 83 48q42 -32 96 -39l3 -1l5 1q41 12 76 36q30 -35 78 -52q-54 -194 -166 -350z" />
    <glyph glyph-name="uniE675" unicode="&#xe675;" 
d="M707 803q-57 0 -108.5 -27.5t-87.5 -75.5q-36 48 -87.5 75.5t-108.5 27.5q-105 0 -179 -81t-74 -196q0 -42 13 -84t25.5 -64t34.5 -57q27 -42 72 -92.5t86 -89.5t88 -79.5t66 -55.5t32 -25q14 -11 32 -11t32 11q13 9 32 24.5t66 56t88 79.5t86 89.5t72 92.5
q22 35 34.5 57t25.5 64t13 84q0 115 -74 196t-179 81zM841 356q-26 -40 -70 -89t-84.5 -87t-86.5 -77t-62.5 -52.5t-26.5 -21.5q-10 8 -26.5 21t-62.5 52.5t-86 77.5t-84.5 87t-70.5 89q-20 32 -31.5 53t-21.5 53t-10 64q0 89 57.5 152t139.5 63q59 0 107.5 -35t71.5 -93v1
q4 -14 17 -14t17 14q23 57 71.5 92t107.5 35q82 0 139.5 -63t57.5 -152q0 -46 -16 -83.5t-47 -86.5z" />
    <glyph glyph-name="uniE676" unicode="&#xe676;" 
d="M945 699q-10 0 -26 2t-53 14.5t-57 31.5q-22 20 -36 51.5t-17 53.5l-3 22q-122 22 -246 22q-54 0 -115.5 -5.5t-95.5 -11.5l-35 -5q-1 -10 -3.5 -24.5t-16.5 -48t-34 -52.5q-22 -20 -58 -32.5t-54.5 -15t-25.5 -2.5q-9 -161 4 -300q6 -57 16 -103.5t28.5 -96.5t51 -94.5
t77.5 -81.5q46 -37 110.5 -74.5t105 -57t41.5 -19.5q121 53 209 110q40 27 71 54t61 64.5t51 87t31 108.5q13 77 18 178t3 163zM676 52q-64 -42 -161 -87v422h-366q-1 5 -1 9q-5 52 -6 114t1 98l2 36q8 1 21 2.5t43.5 12.5t48.5 27q17 16 28.5 41.5t14.5 44.5l3 18
q102 18 203 18h8v-421h349q-4 -41 -10 -76q-16 -93 -62 -153.5t-116 -105.5z" />
    <glyph glyph-name="uniE677" unicode="&#xe677;" 
d="M424 109h-274v613h431v-276q29 14 60 22v283q2 0 -1 15.5t-18 31.5t-43 16h-426q-3 0 -7 -0.5t-14.5 -3.5t-18.5 -9t-14.5 -19t-6.5 -31l-1 -763q1 0 0 -6t2.5 -16t8 -19t17.5 -15.5t31 -6.5h404q-49 32 -83 79.5t-47 104.5zM304 783h123v-30h-123v30zM258.5 783
q6.5 0 11 -4.5t4.5 -10.5t-4.5 -10.5t-11 -4.5t-11 4.5t-4.5 10.5t4.5 10.5t11 4.5zM365.5 -13q-12.5 0 -21.5 9t-9 21.5t9 21.5t21.5 9t21.5 -9t9 -21.5t-9 -21.5t-21.5 -9zM715.5 411q-96.5 0 -165 -68.5t-68.5 -165t68.5 -164.5t165 -68t164.5 68t68 164.5t-68 165
t-164.5 68.5zM844 145h-258v66h258v-66z" />
    <glyph glyph-name="uniE678" unicode="&#xe678;" 
d="M431 785h-274q-24 0 -41.5 -17.5t-17.5 -41.5v-273q0 -24 17.5 -41t41.5 -17h274q24 0 41.5 17t17.5 41v273q0 24 -17.5 41.5t-41.5 17.5zM425 490q0 -13 -9 -21.5t-21 -8.5h-202q-12 0 -20.5 8.5t-8.5 21.5v200q0 12 8.5 21t20.5 9h202q12 0 21 -9t9 -21v-200zM867 785
h-274q-25 0 -42 -17t-17 -42v-272q0 -24 17 -41.5t42 -17.5h274q24 0 41 17t17 42v272q0 25 -17 42t-41 17zM860 490q0 -12 -8.5 -20.5t-20.5 -8.5h-202q-12 0 -21 8.5t-9 20.5v201q0 12 9 21t21 9h202q12 0 20.5 -9t8.5 -21v-201zM431 349h-273q-24 0 -41.5 -17.5
t-17.5 -42.5v-271q0 -25 17.5 -42.5t41.5 -17.5h273q25 0 42.5 17.5t17.5 42.5v271q0 25 -17.5 42.5t-42.5 17.5zM425 54q0 -13 -8.5 -21.5t-20.5 -8.5h-202q-12 0 -21 8.5t-9 21.5v200q0 12 9 21t21 9h202q12 0 20.5 -9t8.5 -21v-200zM867 349h-273q-25 0 -42.5 -17
t-17.5 -41v-273q0 -24 17.5 -41.5t42.5 -17.5h273q25 0 42 17.5t17 41.5v273q0 24 -17.5 41t-41.5 17z" />
    <glyph glyph-name="uniE679" unicode="&#xe679;" 
d="M18 120h84v528h820v100h-904v-628zM545 225q-11 6 -14 8q-57 27 -73 33q-13 6 -15 20q-2 10 -9 10q-2 13 3 42q3 14 4.5 18t5 8t7.5 13q6 20 2 20q-2 0 -4 -1q-1 1 -1 7q1 28 2 39q1 14 -9 25l-8 9l-2 19q-4 -5 -14.5 -7.5t-18.5 -3.5h-9q-29 -3 -42 -7q-27 -8 -26 -36
q1 -6 2.5 -22t1.5 -23h-1q-3 2 -5 1q-2 -2 0 -10t6 -14l4 -8q2 -4 3 -5.5t2 -7.5l3 -16q1 -6 2 -11t1.5 -8t1 -5.5t0.5 -3.5v-2v-2v-1v-1q0 -1 -0.5 -2.5t-0.5 -3.5q-8 0 -9 -10q-2 -14 -15 -20q-25 -11 -84 -39q-15 -8 -13 -22h166l-25 42l-24 42l39 -9l10 -3l48 12
l-24 -42l-24 -42h166q2 13 -10 20zM133 617v-597h873v597h-873zM559 202q0 -18 -17.5 -31t-42.5 -13h-225q-25 0 -42.5 13t-17.5 31v296q0 19 17.5 31.5t42.5 12.5h225q25 0 42.5 -12.5t17.5 -31.5v-296zM922 221l-278 -1q-6 0 -9.5 6t-3.5 15t3.5 15t9.5 6h278q6 0 10 -6
t4 -14.5t-4 -14.5t-10 -6zM922 351l-278 -1q-6 0 -9.5 6t-3.5 15t3.5 15t9.5 6h278q6 0 10 -6t4 -14.5t-4 -14.5t-10 -6zM936 499q0 -9 -4 -15t-10 -6h-278q-6 0 -9.5 6t-3.5 14.5t3.5 14.5t9.5 6l278 1q6 0 10 -6t4 -15zM377 266l12 -60l12 60l-12 11z" />
    <glyph glyph-name="uniE67A" unicode="&#xe67a;" 
d="M960 576q27 0 45.5 18.5t18.5 45.5v128q0 27 -18.5 45.5t-45.5 18.5h-896q-27 0 -45.5 -18.5t-18.5 -45.5v-128q0 -27 18.5 -45.5t45.5 -18.5h640v-64h-640q-27 0 -45.5 -18.5t-18.5 -45.5v-128q0 -27 18.5 -45.5t45.5 -18.5h640v-64h-640q-27 0 -45.5 -18.5t-18.5 -45.5
v-128q0 -27 18.5 -45.5t45.5 -18.5h896q27 0 45.5 18.5t18.5 45.5v128q0 27 -18.5 45.5t-45.5 18.5h-192v64h192q27 0 45.5 18.5t18.5 45.5v128q0 27 -18.5 45.5t-45.5 18.5h-192v64h192zM256 320h-128v128h128v-128zM256 0h-128v128h128v-128zM256 640h-128v128h128v-128z
" />
    <glyph glyph-name="uniE67B" unicode="&#xe67b;" 
d="M339 498q-7 -15 -1.5 -30.5t20.5 -22.5l35 -17q15 -7 30.5 -1.5t23.5 19.5l3 8l5 -2q14 -7 30 -2t23 20l53 111q54 -30 82 -68q48 44 114 44q5 0 13 -1q-47 85 -152 142l23 48q8 15 2.5 31t-20.5 23l-4 2q4 10 0.5 20t-13.5 15l-60 29q-10 4 -20 0.5t-15 -12.5l-4 2
q-15 7 -30.5 1.5t-23.5 -20.5l-133 -276q-7 -15 -2 -30.5t20 -23.5l5 -2zM643 263q-11 -20 -25 -35q-36 -41 -97 -57v39h33v35q0 11 -7.5 18.5t-18.5 7.5h-281q-10 0 -18 -7.5t-8 -18.5v-35h58h1v-204h-1q-100 -41 -149 -134h516q-42 81 -126 123l-2 1l-1 1l1 -1q2 -1 3 -1
v43q121 22 194 103q31 35 51 79h-9q-66 0 -114 43zM756.5 524q-56.5 0 -96.5 -40t-40 -96t40 -96t96.5 -40t96.5 40t40 96t-40 96t-96.5 40z" />
    <glyph glyph-name="uniE67C" unicode="&#xe67c;" 
d="M512 -76q-93 0 -178.5 36.5t-147 98t-98 147t-36.5 178.5t36.5 178.5t98 147t147 98t178.5 36.5t178.5 -36.5t147 -98t98 -147t36.5 -178.5t-36.5 -178.5t-98 -147t-147 -98t-178.5 -36.5zM512 800q-113 0 -209 -55.5t-151.5 -151.5t-55.5 -209t55.5 -209t151.5 -151.5
t209 -55.5t209 55.5t151.5 151.5t55.5 209t-55.5 208.5t-151.5 151.5t-209 56zM766 118q0 -2 -39 -3v8q0 64 -45.5 109.5t-109.5 45.5t-109.5 -45.5t-45.5 -109.5v-7q-39 1 -39 2q0 63 36 113.5t94 70.5q30 -15 64 -15t64 15q57 -20 93.5 -70.5t36.5 -113.5zM452 358
q-64 0 -109.5 -45.5t-45.5 -109.5v-7q-39 1 -39 2q0 63 36.5 113t93.5 70q30 -15 64 -15q29 0 42 -4q10 -4 -31 -4h-11zM572 429zM428 429.5q0 59.5 42 101.5t101.5 42t102 -42t42.5 -101.5t-42.5 -101.5t-102 -42t-101.5 42t-42 101.5zM452 509zM308 509.5q0 59.5 42 101.5
t101.5 42t101.5 -42t42 -101.5t-42 -102t-101.5 -42.5t-101.5 42.5t-42 102z" />
    <glyph glyph-name="uniE67D" unicode="&#xe67d;" 
d="M960 22q0 -27 -15.5 -48.5t-40.5 -30.5v-5h-785v5q-25 9 -40.5 30.5t-15.5 48.5q0 13 5 26.5t12 24t16 20.5t18 17.5t16 12.5l12 8l5 3l252 140v58q-51 30 -81.5 81.5t-30.5 112.5v84q0 93 66 158.5t158.5 65.5t158.5 -65.5t66 -158.5v-84q0 -61 -30.5 -112.5
t-81.5 -81.5v-58l252 -140l4 -3q5 -3 12.5 -8.5t16.5 -13t17.5 -17.5t16 -20.5t12.5 -23.5t5 -26zM960 22z" />
    <glyph glyph-name="uniE67E" unicode="&#xe67e;" 
d="M47 320h32q6 0 11 4.5t5 11.5t-5 11.5t-11 4.5h-32q-7 0 -11.5 -4.5t-4.5 -11.5t4.5 -11.5t11.5 -4.5zM47 160h32q6 0 11 4.5t5 11t-5 11.5t-11 5h-32q-7 0 -11.5 -5t-4.5 -11.5t4.5 -11t11.5 -4.5zM47 640h32q6 0 11 5t5 12t-5 11.5t-11 4.5h-32q-7 0 -11.5 -4.5
t-4.5 -11.5t4.5 -12t11.5 -5zM95 14.5q0 6.5 -5 11.5t-11 5h-32q-7 0 -11.5 -5t-4.5 -11.5t4.5 -11t11.5 -4.5h32q6 0 11 4.5t5 11zM47 480h32q6 0 11 5t5 11.5t-5 11t-11 4.5h-32q-7 0 -11.5 -4.5t-4.5 -11t4.5 -11.5t11.5 -5zM897 256h96v128h-96v-128zM897 416h96v128
h-96v-128zM897 705v-128h96v128h-96zM127 833h738q-4 7 -6.5 14.5t-4 10.5t-6.5 5t-15 2h-706q-31 0 -47.5 -16.5t-16.5 -47.5v-96h32q47 0 47 -48t-47 -48h-32v-65h32q25 0 36 -7t11 -28q0 -25 -12.5 -43t-34.5 -18h-32v-64h32q22 0 34.5 -15.5t12.5 -40.5q0 -22 -11.5 -31
t-35.5 -9h-32v-64h32q21 0 34 -24.5t13 -51.5q0 -9 -1.5 -14t-6.5 -6.5t-9 -1.5t-14 0.5t-16 0.5l-27 -2l-5 -62h32q14 0 20.5 -0.5t14 -3.5t10 -9.5t2.5 -17.5q0 -25 -13 -45t-34 -20h-32q0 -30 23 -47t56 -17h659q31 0 47.5 16.5t16.5 47.5v802h-738q-32 0 -32 32t32 32z
M384 250q16 3 27 17t11.5 27t-4.5 20q-11 11 -17 23t-7 18.5t-3 7.5q-16 5 -19 24.5t12 23.5q-21 79 18.5 110.5t89 24t49.5 -22.5q69 -2 39 -112q13 -11 8 -28t-19 -24q-9 -27 -24 -41q-2 -2 -3 -8t0 -14.5t5 -17t14.5 -16.5t26.5 -12q29 -7 48.5 -19t26 -24t9 -23t0.5 -18
l-1 -7h-383q-3 22 6 39t25.5 27.5t32.5 16.5t32 8z" />
    <glyph glyph-name="uniE67F" unicode="&#xe67f;" 
d="M942 704q-10 -1 -17 -1h-829q-7 0 -17 1q-16 -5 -16 -22v-2q36 -25 37 -26q119 -107 337 -308q41 -37 73.5 -37t73.5 38q246 224 334 305q2 1 40 28v2q0 17 -16 22zM694 344q-23 19 -42 -2q-8 -8 -47 -42q-46 -41 -95 -40.5t-95 40.5q-7 7 -64 58q-168 -139 -187 -155
q-6 -5 -101 -80v-35q0 -10 7.5 -17t16.5 -7h847q10 0 17 7t7 17v42q-149 118 -165 131q-60 48 -99 83zM63 620v-437q109 90 252 209q-112 102 -252 228zM958 189v431q-69 -62 -250 -226q177 -145 250 -205z" />
    <glyph glyph-name="uniE680" unicode="&#xe680;" 
d="M821 183h-602q-16 0 -27.5 11.5t-11.5 27.5v96q0 16 11.5 27.5t27.5 11.5h602q16 0 27.5 -11t11.5 -28v-96q0 -15 -11.5 -27t-27.5 -12zM578 300q-13 0 -21 -8t-8 -20.5t8 -20.5t20.5 -8t20.5 8t8 20q2 12 -7 20.5t-21 8.5zM676 300q-12 0 -20.5 -8t-8.5 -20.5t8.5 -20.5
t20.5 -8t20.5 8t8.5 20.5t-8.5 20.5t-20.5 8zM801 300h-58v-57h58v57zM821 417h-602q-16 0 -27.5 11t-11.5 28v96q0 16 11.5 27.5t27.5 11.5h602q16 0 27.5 -11.5t11.5 -27.5v-96q0 -17 -11.5 -28t-27.5 -11zM577.5 534q-12.5 0 -20.5 -8.5t-8 -20.5t8 -20.5t20.5 -8.5
t20.5 8.5t8 20.5q2 11 -7 20t-21.5 9zM676 534q-12 0 -20.5 -8.5t-8.5 -20.5t8.5 -20.5t20.5 -8.5t20.5 8.5t8.5 20.5q0 11 -8.5 20t-20.5 9zM801 534h-58v-58h58v58zM821 650h-602q-16 0 -27.5 11.5t-11.5 27.5v96q0 16 11.5 27.5t27.5 11.5h602q16 0 27.5 -11t11.5 -28
v-96q0 -16 -11.5 -27.5t-27.5 -11.5zM577.5 765q-12.5 0 -20.5 -8t-8 -20.5t8 -20.5t20.5 -8t20.5 8t8 20.5t-8 20.5t-20.5 8zM676 765q-12 0 -20.5 -8t-8.5 -20.5t8.5 -20.5t20.5 -8t20.5 8t8.5 20.5t-8.5 20.5t-20.5 8zM801 765h-58v-57h58v57zM209 48h229
q-6 -12 -6 -28.5t6 -28.5h-229q-12 0 -20.5 8t-8.5 20.5t8.5 20.5t20.5 8zM492 165h57v-57h-57v57zM520.5 87q27.5 0 47.5 -20t20 -47.5t-20 -47.5t-47.5 -20t-47.5 20t-20 47.5t20 47.5t47.5 20zM600 48h229q13 0 21 -8t8 -20.5t-8 -20.5t-21 -8h-229q6 12 6 28q0 14 -6 29
z" />
    <glyph glyph-name="uniE681" unicode="&#xe681;" 
d="M512 832q92 0 174 -35.5t142.5 -96t96 -142.5t35.5 -174.5t-35.5 -174.5t-96 -142.5t-142.5 -95.5t-174 -35q-83 0 -156 27.5t-132 76.5l109 233q20 -34 37 -61q14 -24 28.5 -45.5t20.5 -28.5q10 -14 19 -25.5t26 -13.5q20 -2 28.5 8t19.5 26q2 4 10.5 20t19.5 40t26 53
q14 30 29 60q33 71 74 158l102 -55l-42 296l-260 -160l114 -39l-120 -248q-28 45 -48 79q-9 14 -17 27t-14 22l-8 15q3 -8 0 -2.5t-11 15t-17.5 19t-17.5 9.5q-22 0 -31.5 -11t-15.5 -25q-2 -4 -9.5 -21t-19.5 -42l-28 -55l-30 -59q-15 -31 -28 -58.5t-23 -47.5
q-40 56 -61.5 122t-21.5 139q0 92 35 174t95.5 142.5t142.5 96t175 35.5zM512 832z" />
    <glyph glyph-name="uniE682" unicode="&#xe682;" 
d="M62 474h900v-180h-900v180z" />
    <glyph glyph-name="uniE683" unicode="&#xe683;" 
d="M351 747q-6 -21 -14 -43.5t-10.5 -27.5t-2 -16.5t4 -18.5t13.5 -26l2 -11q3 -12 7 -25.5t12 -30.5t18 -28q26 -27 62 -47.5t68 -18.5q85 3 119 111q28 87 6 164q-12 41 -42 67.5t-66.5 33t-72.5 0.5t-64.5 -28.5t-39.5 -54.5zM394 444q25 -76 49 -128q18 -40 21 -37l1 3
q18 69 18 84q0 4 -11 21t-5 31q6 18 24.5 24t35.5 -5q15 -11 16.5 -22t-7.5 -29q-5 -11 -8.5 -20t-3.5 -13l-1 -4l24 -71l67 160q11 26 65 -23q65 -58 103 -137q3 -7 6 -13h-575q38 127 181 179zM911 246l-74 -279h20v-28h-718v28h27l-64 279h809zM302 69h37q9 0 16 2
q6 2 12 5q4 3 8.5 8.5t7 13.5t2.5 19q0 12 -4 22q-3 10 -11 16q-7 5 -15 7q-7 1 -18 1h-35v-94zM316 81h21q10 0 16 1q5 2 9 5q5 5 7 12q3 7 3 18q0 15 -5.5 23t-12.5 10q-6 2 -17 2h-21v-71zM452 91q-3 -7 -7.5 -10.5t-11.5 -3.5q-9 0 -15.5 6t-6.5 18h54v3q0 16 -9.5 25.5
t-23.5 9.5q-15 0 -24.5 -9.5t-9.5 -26.5t9.5 -26t25.5 -9q12 0 21 6q7 5 11 16zM411 110h41q-1 8 -5 13q-6 6 -15 6q-8 0 -14 -5t-7 -14zM475 90q2 -11 9.5 -16.5t21.5 -5.5q9 0 15.5 2.5t10.5 8t4 10.5q0 6 -3 10t-8 6q-6 3 -19 6q-8 2 -11 3t-4.5 2.5t-1.5 4.5t4 6t12 3
q7 0 11 -3t5 -9l12 2q-1 6 -4 10.5t-10 6.5t-15 2q-6 0 -11 -1.5t-7 -3.5q-4 -3 -7 -6q-2 -4 -2 -9t3 -9t8 -6q6 -3 19 -6q10 -2 12 -4q4 -2 4 -6t-4 -7.5t-12.5 -3.5t-13.5 4t-6 11zM550 150h13v13h-13v-13zM550 69h13v68h-13v-68zM579 64q0 -11 8 -16.5t21 -5.5
q11 0 18.5 3.5t11 10.5t3.5 23v58h-11v-8q-9 10 -22 10q-9 0 -16.5 -4.5t-11.5 -12.5q-3 -8 -3 -18q0 -14 8 -24.5t23 -10.5q12 0 20 9q0 -11 -1 -14q-1 -6 -6 -9.5t-13 -3.5t-13 4q-3 2 -4 7zM589 105q0 -14 6 -20t14.5 -6t14 6t5.5 19t-5.5 19t-14.5 6q-8 0 -14 -6t-6 -18
zM660 69h12v38q0 13 5.5 17.5t13.5 4.5q5 0 9 -2t5 -5.5t1 -10.5v-42h13v42q0 8 -1 11q-1 5 -4 9t-8.5 6t-11.5 2q-15 0 -23 -11v9h-11v-68zM454 767q3 -2 9.5 -4.5t27 -6.5t38.5 0q23 4 33 9t19 5q18 0 31 -18.5t22 -72.5q5 -30 1 -63.5t-16 -65t-32.5 -55t-50 -32.5
t-67.5 3q-23 7 -49 29t-41 46q-8 13 -13 34.5t-6 35.5v15l-7 7q-4 5 -9 12q-6 11 -5 19t5 13l5 4q13 -2 59 11q21 7 32.5 25.5t12.5 33.5z" />
    <glyph glyph-name="uniE684" unicode="&#xe684;" 
d="M907 79l-104 147v308q0 124 -85 211.5t-206 87.5t-206 -87.5t-85 -211.5v-308l-104 -147q-6 -8 -3 -14t14 -6h768q11 0 14 6t-3 14zM412 48q1 -47 30 -80t70 -33t70 33t30 80h-200zM412 48zM607 87q-10 36 -36 58.5t-59 22.5t-59 -22.5t-36 -58.5h190zM607 87z" />
    <glyph glyph-name="uniE685" unicode="&#xe685;" 
d="M887 -66h-750q-31 0 -53 22.5t-22 53.5v749q0 31 22 53t53 22h750q31 0 53 -22t22 -53v-749q0 -31 -22 -53.5t-53 -22.5zM362 534h-75v150h-75v-150h-75v-112h75v-338h75v338h75v112zM624 347h-74v337h-76v-337h-74v-113h74v-150h76v150h74v113zM887 459h-75v225h-75
v-225h-75v-112h75v-263h75v263h75v112zM662 384v75h225v-75h-225zM662 384v75h75h75h75v-75h-225zM400 272v75h224v-75h-224zM400 272v75h74h76h74v-75h-224zM137 459v75h225v-75h-225zM137 459v75h75h75h75v-75h-225z" />
    <glyph glyph-name="uniE686" unicode="&#xe686;" 
d="M50 153h172v-217h-172v217zM313 376h177v-440h-177v440zM576 291h176v-355h-176v355zM840 507h177v-571h-177v571zM2 369l410 377l236 -231l222 259l-81 84h228v-220l-80 82l-289 -350l-238 244l-351 -326z" />
    <glyph glyph-name="uniE687" unicode="&#xe687;" horiz-adv-x="1205" 
d="M1157 432h-232q-20 0 -34 -14t-14 -34v-15q0 -20 14 -34t34 -14h232q20 0 34 14t14 34v15q0 20 -14 34t-34 14zM618 843q-38 -30 -159.5 -104.5t-172.5 -110.5q-1 -1 -2 -3.5t-2 -2.5q-2 -1 -9 -7t-13.5 -9.5t-24 -7t-41.5 -3.5h-137q-56 0 -56 -54v-328q0 -55 56 -55
h137q24 0 41.5 -3.5t24 -7t13.5 -9.5t9 -7q1 0 2 -3t2 -3q56 -41 177 -117.5t155 -101.5q11 -8 25.5 -12.5t31.5 -4t28.5 19t11.5 54.5v828q0 35 -11.5 53t-28.5 18t-32 -5.5t-25 -13.5zM833 617q9 -17 25 -20.5t29 8.5l191 160q14 12 16.5 31.5t-6.5 35.5l-7 12
q-9 17 -25 20.5t-29 -7.5l-191 -161q-14 -12 -17 -31.5t7 -35.5zM887 148q-13 11 -29 7.5t-25 -19.5l-7 -12q-10 -17 -7 -36.5t17 -30.5l191 -161q13 -11 29 -7.5t25 19.5l7 13q9 16 6 35.5t-16 30.5z" />
    <glyph glyph-name="uniE688" unicode="&#xe688;" 
d="M352 896h-256q-40 0 -68 -28t-28 -68v-256q0 -40 28 -68t68 -28h256q40 0 68 28t28 68v256q0 40 -28 68t-68 28zM928 896h-256q-40 0 -68 -28t-28 -68v-256q0 -40 28 -68t68 -28h256q40 0 68 28t28 68v256q0 40 -28 68t-68 28zM352 320h-256q-40 0 -68 -28t-28 -68v-256
q0 -40 28 -68t68 -28h256q40 0 68 28t28 68v256q0 40 -28 68t-68 28zM928 320h-256q-40 0 -68 -28t-28 -68v-256q0 -40 28 -68t68 -28h256q40 0 68 28t28 68v256q0 40 -28 68t-68 28z" />
    <glyph glyph-name="uniE689" unicode="&#xe689;" 
d="M102 512q32 -27 74 -27h673q47 0 80 33l-422 313zM960 436q0 26 -11 49l-282 -210l275 -283q18 28 18 61v383zM79 492q-15 -26 -15 -56v-383q0 -38 23 -68l275 283zM637 253l-119 -89q-6 -4 -11 -4q-7 0 -12 4l-104 82l-277 -286q28 -18 61 -18h674q38 0 68 23z" />
    <glyph glyph-name="uniE68A" unicode="&#xe68a;" 
d="M817 615q-1 -1 -1 -4q-1 0 -1 -1t-1 -3v-1l-1 -1q0 -2 -1 -3v-1q-1 -1 -1 -2v-1h-1v-2h-1q0 -2 -1 -2v-2h-1v-1q-1 -1 -1 -2q-1 -1 -1.5 -2t-1.5 -2q0 -1 -1 -2q0 -1 -1 -2q-1 -2 -3 -4q-1 -2 -3 -4h-1v-1l-2 -2v-1l-5 -5l-11 -11l-6 -4v-1q-9 -7 -19 -14h-1q-2 -2 -6 -4
l-1 -1q-3 -2 -7 -4q-3 -2 -7 -5h-1q-3 -2 -7 -4l-1 -1h-1h67q21 0 33 -16v116h-2zM621 -82q-2 1 -3 2l-30 -30q17 4 33 8v20zM621 427v47v4q-7 -2 -10 -3h-1q-14 -3 -29 -6l-1 -1q-2 0 -5 -1h-2q7 -3 12 -8l33 -33q1 1 3 1zM0 487v-3l1 -2v-2v-2q1 -1 1 -3v-1q1 -4 2 -9h1
v-1q0 -1 1 -3v-1l2 -4q22 -50 97.5 -87.5t182.5 -51.5v0q5 -1 13 -2q2 0 3 -1q7 0 13 -1t13 -1q2 0 4 -1q7 0 13 -1h14q2 -1 3 -1q16 0 32 -1h6h8h6h7h19l-4 4q-12 12 -12 29t12 29l89 89q-7 -1 -10 -1h-3q-4 -1 -15 -2h-1h-1q-1 0 -7 -1q-7 0 -9 -1h-1h-2h-2q-8 -1 -11 -1
h-2h-5q-8 -1 -11 -1h-2h-1h-15h-3h-16h-17h-1h-2h-15h-1h-2q-4 1 -12 1h-2h-2h-2q-1 0 -2.5 0.5t-2.5 0.5h-10h-1q-2 1 -9 1q-5 1 -7 1h-1h-1q-8 1 -15 2h-1h-1h-1q-8 1 -15 2v0q-2 0 -5 1h-2q-1 0 -2 0.5t-2 0.5h-2h-2h-2v1h-2h-2q-8 2 -10 2h-1h-1q-8 2 -15 3l-1 1
q-7 1 -15 3q-7 1 -14 3h-1l-14 4h-1q-7 3 -13 4l-1 1q-7 2 -13 4q-7 2 -13 4h-1v1q-4 1 -9 3l-2 1l-6 2q-2 1 -3 1q-3 2 -6 3l-1 1h-1q-5 2 -8 4h-1q-4 2 -7 3l-2 1q-3 2 -6 3l-2 1q-4 2 -7 4v0q-4 2 -8 5q-3 2 -7 4v1h-1q-3 2 -6 3l-1 1q-10 7 -19 14v1q-3 2 -5 4h-1
q-5 5 -10 11q-3 2 -5 5l-1 1l-2 2v1h-1q-1 2 -3 4q-1 2 -3 4q0 1 -1 2q0 1 -1 2t-1 2q-1 1 -1 2l-2 2v1l-1 2h-1v1v1q-1 1 -1 2v0q-1 2 -2 3v1q0 1 -1 3v1q-1 0 -1 1q-1 2 -1 3v1q-1 3 -1 4h-3v-122v-5v-1zM0 703q7 -62 95.5 -109.5t221.5 -61.5q28 -3 57 -4q18 -1 36 -1h11
q41 1 81 5q48 5 92 15l8 2q28 7 54 15q5 2 9 4q11 3 21 7q6 3 13 6t13 6q3 2 6 3l18 10q13 8 23 16q3 1 6 4q10 8 18 16l4 4q8 8 14 17q3 4 5 9q3 4 5 9q1 3 2 5q5 12 6 23v4v5q0 50 -54.5 92.5t-149 67t-206 24.5t-205.5 -24.5t-149 -67t-55 -92.5v-5v-4zM0 269v-3
q1 -1 1 -2v-3v-1q0 -1 1 -3v-1q1 -3 1 -5q1 -2 1 -4q1 0 1 -1q0 -2 1 -3v-1l2 -3v-2q1 -1 2 -3v-1l2 -4h1l2 -4v-1q1 -1 2 -3q1 0 1 -1q1 -1 2 -3l1 -1q1 -1 2 -3q1 0 1 -1q2 -2 3 -4h1q1 -2 3 -4h1v-1l2 -2q1 -1 1 -2q2 -1 3 -2v-1h1l4 -4l4 -4h1q2 -2 4 -3q0 -1 1 -1l3 -3
q1 -1 2 -1l3 -3h1q5 -4 11 -7v-1q2 -1 5 -3h1q2 -2 4 -3q1 0 1 -0.5t1 -0.5q2 -1 5 -3l12 -6l1 -1q3 -1 5 -3h1q3 -1 6 -3h1q13 -6 27 -12h1q3 -1 7 -2v-1q15 -5 31 -10q49 -15 106 -23v0h2h1q4 -1 8 -1h1h1q2 -1 3 -1h1q4 0 9 -1h1h2h3q1 0 1 -1h7h2q2 -1 4 -1v0q6 0 11 -1
h1h1h3h1h8h1q0 -1 1 -1h3h1h11h1h1h2h2l4 -1q-5 9 -5 20v124h-3h-3h-3q-8 1 -16 1h-2q-8 1 -15 1h-1q-7 1 -16 2h-2q-8 1 -15 2h-3q-8 1 -15 2t-15 2h-2q-7 2 -14 3h-2q-8 2 -15 3h-1q-15 3 -29 7h-1l-14 4h-1q-7 2 -13 4h-1q-7 3 -13 5q-2 0 -6.5 1.5t-6.5 2.5v0h-1v-1
l-14 6h-1q-7 3 -13 6h-1q-7 3 -13 7h-1q-7 3 -13 7l-12 6v1q-12 7 -23 14q-42 31 -55 67q-2 5 -3 9h-3v-122v-4v-1zM527 -113l-89 88q-12 12 -12 29q0 6 2 12h-2q-9 -1 -16.5 -1t-16.5 1h-1h-2h-15h-3q-8 0 -16 1h-2q-8 1 -15 1h-1q-7 1 -16 2h-2q-8 1 -15 1q-1 1 -3 1
q-8 1 -15 2t-15 2h-2q-7 1 -14 3h-2q-8 2 -15 3h-1q-15 3 -29 7h-1l-14 4h-1q-7 2 -13 4h-1q-7 2 -13 5q-7 2 -13 4h-1v0q-62 23 -101 55t-48 68h-3v-123q0 -61 80.5 -109.5t207.5 -66.5v0q5 0 13 -1q2 -1 3 -1q7 -1 13 -1q6 -1 13 -2h4q7 0 13 -1q6 0 14 -1h3h14
q6 -1 14 -1h4h14h14h3q8 0 14 1h14h3q8 1 14 1q6 1 14 1h3q7 1 13 2q6 0 13 1q2 0 4 1q7 1 13 1h1l1 1q-4 2 -7 6zM1024 110v124h-75q-8 29 -21 53l53 54l-89 89l-53 -54q-25 15 -53 22v76h-124v-76q-28 -8 -53 -22l-53 54l-89 -89l53 -54q-13 -24 -21 -53h-77v-124h77
q7 -27 21 -53l-53 -53l89 -88l53 53q25 -14 53 -21v-76h124v75q28 8 53 22l54 -53l88 88l-53 53q14 25 21 53h75zM724 45q-53 0 -90.5 37.5t-37.5 90.5t37.5 90.5t90.5 37.5t90.5 -37.5t37.5 -90.5t-37.5 -90.5t-90.5 -37.5z" />
    <glyph glyph-name="uniE68B" unicode="&#xe68b;" 
d="M393 525q-3 2 -7 5t-17 10t-27 9.5t-35 -0.5t-42 -15q-57 -35 -54 -106v-8q-5 -1 -15 -4t-35 -16t-44.5 -30.5t-35 -51t-15.5 -75.5q1 -30 10 -54.5t22.5 -40t31.5 -26.5t33 -16.5t30.5 -8.5t21.5 -3h9h244v154h-77l129 139l129 -139h-77v-154h221h9q5 0 20.5 3t29.5 7.5
t32 15t32 25t26 38t16 51.5q2 43 -11 78t-34 54t-42.5 32t-36.5 17l-16 4q-1 1 1 12.5t-2 33t-8.5 46t-19 51.5t-33.5 49.5t-53 39.5t-77 22q-50 5 -92.5 -8.5t-67.5 -36t-42.5 -46t-24.5 -40.5zM393 525z" />
    <glyph glyph-name="uniE68C" unicode="&#xe68c;" 
d="M821 829h-555q-41 0 -70 -29t-29 -70v-20h-50q-10 0 -17 -7.5t-7 -17.5v-67q0 -10 7 -17t17 -7h50v-130h-50q-10 0 -17 -7t-7 -17v-67q0 -10 7 -17.5t17 -7.5h50v-129h-50q-10 0 -17 -7t-7 -18v-66q0 -11 7 -18t17 -7h50v-61q0 -41 29 -70t70 -29h555q40 0 69.5 29
t29.5 70v688q0 41 -29.5 70t-69.5 29zM412 570q0 13 9 22.5t22 9.5h69l2 69q0 13 9.5 22t22.5 9l27 -1q13 0 22 -9.5t9 -22.5l-2 -67h68q13 0 22.5 -9.5t9.5 -22.5v-27q0 -13 -9.5 -22t-22.5 -9h-69l-1 -69q0 -13 -9.5 -22.5t-22.5 -8.5h-27q-13 0 -22 9.5t-9 22.5l1 68h-68
q-13 0 -22 9t-9 22v27zM807 95q0 -4 -4 -4h-519q-4 0 -4 4v38q0 4 4 4h519q4 0 4 -4v-38zM807 247q0 -6 -6 -6h-347q-6 0 -6 6v35q0 5 6 5h347q6 0 6 -5v-35z" />
    <glyph glyph-name="uniE68D" unicode="&#xe68d;" 
d="M891 320l-65 -4q-1 -4 -2.5 -11.5t-10 -30t-20 -44t-33.5 -49t-49 -49.5t-68 -41.5t-90 -29.5q-7 27 -27 46.5t-48 26.5q-43 12 -81 -10.5t-49.5 -65.5t11 -81t65.5 -50q41 -10 78.5 10.5t50.5 61.5q14 1 31 4.5t47.5 13.5t58.5 24.5t61 39.5t59.5 57t48.5 79t32 103z
M858 655q-30 8 -59 -1q-46 49 -100 80.5t-98.5 41.5t-82.5 12.5t-59 -0.5l-22 -4l24 -59q57 6 108 -4.5t87.5 -32t56.5 -37.5t34 -32q-14 -18 -20 -40q-11 -43 11.5 -81.5t65 -49.5t81 11.5t49.5 65t-11 81t-65 49.5zM259 748q-43 11 -81 -11.5t-49 -65.5q-14 -51 19 -93
q-26 -54 -37 -108.5t-7.5 -98t14.5 -84t27 -70t31 -51.5t25 -33.5t11 -11.5l31 58q-37 45 -55.5 95.5t-20.5 90.5t5.5 81t14.5 60.5t15 35.5h1q1 -1 2 -1q43 -11 81 11t49.5 65t-11 81.5t-65.5 49.5zM486 280h-50v91h-98v-91h-51v224h51v-89h98v89h50v-224zM719 280h-65
l-55 88h-29v-88h-51v224h103q82 -2 85 -66q1 -56 -55 -68zM614 465h-44v-60h44q40 0 39 30q1 31 -39 30z" />
    <glyph glyph-name="uniE68E" unicode="&#xe68e;" 
d="M971 752h-918q-22 0 -37.5 -15.5t-15.5 -37.5v-630q0 -22 15.5 -37.5t37.5 -15.5h918q22 0 37.5 15.5t15.5 37.5v630q0 22 -15.5 37.5t-37.5 15.5zM479.5 183.5q-1.5 -9.5 -4.5 -14.5q-2 -3 -12.5 -6t-26.5 -6t-34.5 -5.5t-37.5 -4t-37 -2.5t-31 -1t-30.5 1t-36.5 3
t-37 3q-18 2 -33.5 4.5t-26 5t-13.5 4.5q-4 4 -6.5 22.5t1.5 48.5q3 17 14 25.5t26 14t30.5 9.5t28.5 12q9 6 14.5 11.5t7.5 11t2 11.5v13q-1 11 -7.5 17t-14.5 12q-3 3 -6 9t-5 12q-2 7 -5 15q-3 1 -6 3t-6 6.5t-5.5 12t-2 14t2.5 10.5q2 6 6 10q0 17 2 35q2 15 6.5 31.5
t14.5 30.5q8 12 19 20.5t22 13t22.5 6t21.5 1.5q27 0 48.5 -11.5t31.5 -24.5q12 -14 18 -32t8 -34q3 -18 2 -36q3 -2 5 -6q2 -3 3 -8t0 -13q-1 -9 -4 -15t-6 -10q-4 -3 -9 -4q-2 -8 -4 -15q-2 -6 -5.5 -12t-7.5 -8q-4 -4 -7.5 -6.5t-6 -5.5t-4.5 -7t-3 -9q-1 -7 -1 -14.5
t3.5 -14.5t10.5 -13t20 -11q12 -5 25.5 -8.5t26 -8.5t22.5 -12.5t14 -19.5q2 -7 3.5 -17.5t1.5 -22t-1.5 -21zM888 224h-288q-10 0 -17 7t-7 16.5t7 17t17 7.5h288q10 0 17 -7.5t7 -17t-7 -16.5t-17 -7zM888 367h-288q-10 0 -17 7t-7 17t7 17t17 7h288q10 0 17 -7t7 -17
t-7 -17t-17 -7zM888 512h-288q-10 0 -17 7t-7 17t7 17t17 7h288q10 0 17 -7t7 -17t-7 -17t-17 -7z" />
    <glyph glyph-name="uniE68F" unicode="&#xe68f;" 
d="M279 605q0 -74 44.5 -133.5t114.5 -82.5h-3v-382l77 -74l43 48v71l-16 16l53 51l-53 51l50 48v26l-50 57l53 44v46q68 24 111 82.5t43 131.5q0 94 -68.5 160.5t-165 66.5t-165 -66.5t-68.5 -160.5zM579 686q0 -27 -19.5 -46t-47 -19t-47 19t-19.5 46t19.5 45.5t47 18.5
t47 -18.5t19.5 -45.5z" />
    <glyph glyph-name="uniE690" unicode="&#xe690;" 
d="M679.5 851q-117.5 0 -200.5 -83t-83 -200q0 -26 5 -52l-344 -344v-170q0 -24 16.5 -40.5t39.5 -16.5h57v57h113v113h113v113h85q21 89 93 146.5t165 57.5q86 0 155 -49q68 80 68 185q0 117 -82.5 200t-200 83zM764 568q-35 0 -60 25t-25 60t25 60t60 25t60 -25t25 -60
t-25 -60t-60 -25zM952 212h-42q-1 1 -6.5 16t-10.5 23l30 29q7 7 7 16.5t-7 16.5l-34 34q-7 7 -17 7t-17 -7l-28 -30q-8 5 -23 10.5t-16 6.5v42q0 10 -8.5 17t-19.5 7h-48q-10 0 -18.5 -7t-8.5 -17v-42q-1 -1 -16.5 -6.5t-22.5 -10.5l-29 30q-7 7 -17 7t-17 -7l-33 -34
q-7 -7 -7 -17t7 -17l30 -28q-5 -8 -11 -23t-6 -16h-42q-10 0 -17.5 -8.5t-7.5 -19.5v-48q0 -10 7.5 -18.5t17.5 -8.5h42q0 -1 6 -16.5t11 -22.5l-30 -29q-7 -7 -7 -17t7 -17l34 -33q7 -7 17 -7t17 7l28 30q7 -5 22.5 -11t16.5 -6v-42q0 -10 8.5 -17t18.5 -7h48q11 0 19.5 7
t8.5 17v42q1 0 16 6t23 11l29 -30q7 -7 16.5 -7t16.5 7l34 34q7 7 7 17t-7 17l-30 28q5 7 10.5 22.5t6.5 16.5h42q10 0 17 8.5t7 18.5v48q0 11 -7 19.5t-17 8.5zM736.5 52q-44.5 0 -76.5 32t-32 76.5t32 76.5t76.5 32t76.5 -32t32 -76.5t-32 -76.5t-76.5 -32z" />
    <glyph glyph-name="uniE691" unicode="&#xe691;" 
d="M916 526v-448q0 -9 -6.5 -15.5t-16.5 -6.5h-760q-10 0 -16.5 6.5t-6.5 15.5v433h-45v-433q0 -28 20 -47.5t48 -19.5h760q28 0 48 19.5t20 47.5v448h-45zM647 324h-268q-10 0 -16.5 -6.5t-6.5 -15.5t6.5 -15.5t16.5 -6.5h268q10 0 16.5 6.5t6.5 15.5t-6.5 15.5t-16.5 6.5z
M417.5 317.5q-6.5 6.5 -16 6.5t-15.5 -6l-292 -247q-6 -6 -6 -15t6 -15.5t15.5 -6.5t15.5 6l292 247q7 6 7 15t-6.5 15.5zM932 71l-292 247q-6 6 -15.5 6t-15.5 -6.5t-6 -15.5t6 -15l292 -247q6 -6 15.5 -6t15.5 6.5t6 15.5t-6 15zM395 317l-270 202q-6 7 -15.5 7
t-15.5 -6.5t-6 -15.5t6 -16l270 -202q6 -7 15 -7t15.5 6.5t6.5 15.5t-6 16zM932 519.5q-6 6.5 -15.5 6.5t-15.5 -7l-270 -202q-6 -6 -6 -15t6.5 -15.5t15.5 -6.5t15 6l270 202q6 7 6 16t-6 15.5zM951 543l-379 203q-59 27 -125 -7l-372 -211q-8 -5 -9.5 -14t3.5 -16.5
t14.5 -9.5t16.5 4l373 210q50 20 85 3l367 -197q8 -5 17 -3.5t14.5 8.5t4 16t-9.5 14z" />
    <glyph glyph-name="uniE692" unicode="&#xe692;" 
d="M894 722h-763q-28 0 -48 -19.5t-20 -47.5v-539q0 -28 20 -47.5t48 -19.5h763q28 0 47.5 19.5t19.5 47.5v539q0 28 -19.5 47.5t-47.5 19.5zM916 116q0 -9 -6.5 -15.5t-15.5 -6.5h-763q-10 0 -16.5 6.5t-6.5 15.5v539q0 9 6.5 15.5t16.5 6.5h763q9 0 15.5 -6.5t6.5 -15.5
v-539zM909.5 693q-6.5 6 -15.5 6t-15 -6q-247 -246 -344 -343q-15 -15 -23 -15t-22 14l-344 344q-7 6 -16 6t-15.5 -6t-6.5 -15.5t7 -15.5l343 -343q26 -26 54.5 -25.5t53.5 25.5q343 343 344 343q6 6 6 15.5t-6.5 15.5zM416 401.5q-6 6.5 -15.5 6.5t-15.5 -7l-293 -292
q-6 -6 -6 -15.5t6.5 -16t15.5 -6.5t15 7l293 292q6 7 6 16t-6 15.5zM932 109l-293 292q-6 7 -15 7t-15.5 -6.5t-6.5 -15.5t6 -16l293 -292q7 -7 16 -7t15.5 6.5t6.5 16t-7 15.5z" />
    <glyph glyph-name="uniE693" unicode="&#xe693;" 
d="M804 492q-23 0 -46 -8q15 79 -14 145t-86 102q-36 22 -77.5 27t-86.5 -13t-80 -61q-37 45 -85 63.5t-100 7.5q-63 -14 -107.5 -65.5t-54.5 -121.5q-3 -13 -1.5 -33t3 -42.5t12.5 -51t25 -57.5t41 -62.5t60.5 -65.5t83.5 -67.5t110 -68.5q6 -3 13 -3t13 3q36 20 70 41
q64 -81 187 -149q6 -3 13 -3t13 3q147 81 209 180q55 88 34 173q-13 55 -55 91t-94 36zM697 70q-53 29 -92.5 61t-60.5 60t-34 53t-16 47.5t-3 35.5t3 25q9 36 36 59.5t60 23.5q50 0 84 -55q8 -13 23 -13t23 13q34 55 84 55q33 0 60 -23.5t36 -59.5q3 -12 3 -25.5
t-2.5 -35.5t-16 -47t-34.5 -53t-60.5 -60t-92.5 -61z" />
    <glyph glyph-name="uniE694" unicode="&#xe694;" 
d="M512 768q-77 0 -147 -29t-124.5 -83.5t-83.5 -124.5t-29 -147t29 -147t83.5 -124.5t124.5 -83.5t147 -29t147 29t124.5 83.5t83.5 124.5t29 147t-29 147t-83.5 124.5t-124.5 83.5t-147 29zM512 832q122 0 225 -60t163 -163t60 -225t-60 -225t-163 -163t-225 -60t-225 60
t-163 163t-60 225t60 225t163 163t225 60zM716 226l-46 -46l-362 362l46 46zM354 180l-46 46l362 362l46 -46z" />
    <glyph glyph-name="uniE695" unicode="&#xe695;" 
d="M860 765h-696q-41 0 -70.5 -29t-29.5 -69v-697q0 -42 29.5 -71t70.5 -29h696q41 0 70.5 29t29.5 70v697q0 41 -29.5 70t-70.5 29zM168 498h366q13 0 22.5 -9t9.5 -22.5t-9.5 -23t-22.5 -9.5h-366q-14 0 -23 9.5t-9 23t9 22.5t23 9zM391 276h-223q-14 0 -23 9.5t-9 22.5
t9 22.5t23 9.5h223q13 0 22.5 -9.5t9.5 -22.5t-9.5 -22.5t-22.5 -9.5zM431 54l25 123l95 -88zM568 105l-97 88l262 285l95 -89zM912 480l-70 -76l-75 70l-19 18l69 77q8 8 18.5 8.5t18.5 -7.5l56 -53q8 -7 8.5 -18t-6.5 -19z" />
    </font>
</defs>
</svg>
